<svg width="91" height="42" viewBox="0 0 91 42" fill="none" xmlns="http://www.w3.org/2000/svg">
<path d="M8.06619 1.31504C8.06619 2.04124 8.67194 2.63008 9.41945 2.63008C10.1667 2.63008 10.7727 2.04124 10.7727 1.31504C10.7727 0.588643 10.1667 0 9.41945 0C8.67194 0 8.06619 0.588643 8.06619 1.31504ZM0 1.31504C0 2.04124 0.605964 2.63008 1.35326 2.63008C2.10077 2.63008 2.70652 2.04124 2.70652 1.31504C2.70652 0.588643 2.10077 0 1.35326 0C0.605964 0 0 0.588643 0 1.31504ZM16.1324 1.31504C16.1324 2.04124 16.7381 2.63008 17.4854 2.63008C18.2329 2.63008 18.8389 2.04124 18.8389 1.31504C18.8389 0.588643 18.2329 0 17.4854 0C16.7381 0 16.1324 0.588643 16.1324 1.31504ZM32.0955 1.31504C32.0955 2.04124 32.7013 2.63008 33.4488 2.63008C34.1963 2.63008 34.8021 2.04124 34.8021 1.31504C34.8021 0.588643 34.1963 0 33.4488 0C32.7013 0 32.0955 0.588643 32.0955 1.31504ZM24.0294 1.31504C24.0294 2.04124 24.6353 2.63008 25.3828 2.63008C26.1301 2.63008 26.7361 2.04124 26.7361 1.31504C26.7361 0.588643 26.1301 0 25.3828 0C24.6351 0 24.0294 0.588643 24.0294 1.31504ZM40.1617 1.31504C40.1617 2.04124 40.7675 2.63008 41.515 2.63008C42.2623 2.63008 42.8683 2.04124 42.8683 1.31504C42.8683 0.588643 42.2623 0 41.515 0C40.7675 0 40.1617 0.588643 40.1617 1.31504ZM56.1964 1.31504C56.1964 2.04124 56.8024 2.63008 57.5499 2.63008C58.2972 2.63008 58.9032 2.04124 58.9032 1.31504C58.9032 0.588643 58.2972 0 57.5499 0C56.8022 0 56.1964 0.588643 56.1964 1.31504ZM48.1305 1.31504C48.1305 2.04124 48.7362 2.63008 49.4837 2.63008C50.231 2.63008 50.837 2.04124 50.837 1.31504C50.837 0.588643 50.231 0 49.4837 0C48.7362 0 48.1305 0.588643 48.1305 1.31504ZM64.2626 1.31504C64.2626 2.04124 64.8686 2.63008 65.6159 2.63008C66.3634 2.63008 66.9691 2.04124 66.9691 1.31504C66.9691 0.588643 66.3634 0 65.6159 0C64.8686 0 64.2626 0.588643 64.2626 1.31504ZM80.2262 1.31504C80.2262 2.04124 80.832 2.63008 81.5795 2.63008C82.3268 2.63008 82.9327 2.04124 82.9327 1.31504C82.9327 0.588643 82.3268 0 81.5795 0C80.832 0 80.2262 0.588643 80.2262 1.31504ZM72.16 1.31504C72.16 2.04124 72.766 2.63008 73.5133 2.63008C74.2608 2.63008 74.8665 2.04124 74.8665 1.31504C74.8665 0.588643 74.2608 0 73.5133 0C72.766 0 72.16 0.588643 72.16 1.31504ZM88.2924 1.31504C88.2924 2.04124 88.8981 2.63008 89.6454 2.63008C90.3932 2.63008 90.9989 2.04124 90.9989 1.31504C90.9989 0.588643 90.393 0 89.6454 0C88.8981 0 88.2924 0.588643 88.2924 1.31504ZM8.06597 40.6547C8.06597 41.3809 8.67194 41.9698 9.41945 41.9698C10.1667 41.9698 10.7727 41.3809 10.7727 40.6547C10.7727 39.9283 10.1667 39.3397 9.41945 39.3397C8.67194 39.3397 8.06597 39.9283 8.06597 40.6547ZM8.06619 32.8164C8.06619 33.5428 8.67215 34.1314 9.41967 34.1314C10.167 34.1314 10.7729 33.5428 10.7729 32.8164C10.7729 32.0902 10.167 31.5013 9.41967 31.5013C8.67215 31.5013 8.06619 32.0902 8.06619 32.8164ZM16.1326 32.8164C16.1326 33.5428 16.7386 34.1314 17.4859 34.1314C18.2334 34.1314 18.8393 33.5428 18.8393 32.8164C18.8393 32.0902 18.2334 31.5013 17.4859 31.5013C16.7386 31.5013 16.1326 32.0902 16.1326 32.8164ZM0 40.6549C0 41.3811 0.605964 41.97 1.35326 41.97C2.10077 41.97 2.70652 41.3811 2.70652 40.6549C2.70652 39.9285 2.10077 39.3399 1.35326 39.3399C0.605964 39.3399 0 39.9285 0 40.6549ZM16.1324 40.6549C16.1324 41.3811 16.7381 41.97 17.4854 41.97C18.2329 41.97 18.8389 41.3811 18.8389 40.6549C18.8389 39.9285 18.2329 39.3399 17.4854 39.3399C16.7381 39.3399 16.1324 39.9285 16.1324 40.6549ZM0 24.978C0 25.7044 0.605964 26.2933 1.35326 26.2933C2.10077 26.2933 2.70652 25.7044 2.70652 24.9782C2.70652 24.2518 2.10077 23.663 1.35326 23.663C0.605964 23.663 0 24.2516 0 24.978ZM0 32.8166C0 33.543 0.605964 34.1316 1.35326 34.1316C2.10077 34.1316 2.70652 33.543 2.70652 32.8166C2.70652 32.0904 2.10077 31.5015 1.35326 31.5015C0.605964 31.5015 0 32.0904 0 32.8166ZM16.1324 24.9784C16.1324 25.7046 16.7381 26.2935 17.4854 26.2935C18.2329 26.2935 18.8389 25.7046 18.8389 24.9784C18.8389 24.252 18.2329 23.6632 17.4854 23.6632C16.7381 23.6632 16.1324 24.252 16.1324 24.9784ZM8.06597 24.9784C8.06597 25.7046 8.67172 26.2935 9.41923 26.2935C10.1665 26.2935 10.7725 25.7046 10.7725 24.9784C10.7725 24.252 10.1665 23.6632 9.41923 23.6632C8.67172 23.6632 8.06597 24.252 8.06597 24.9784ZM16.1319 17.14C16.1319 17.8662 16.7379 18.4551 17.4852 18.4551C18.2327 18.4551 18.8387 17.8662 18.8387 17.14C18.8387 16.4136 18.2327 15.825 17.4852 15.825C16.7379 15.825 16.1319 16.4136 16.1319 17.14ZM0 9.30146C0 10.0279 0.605964 10.6165 1.35326 10.6165C2.10077 10.6165 2.70652 10.0279 2.70652 9.30146C2.70652 8.57527 2.10077 7.98642 1.35326 7.98642C0.605964 7.98642 0 8.57527 0 9.30146ZM8.06619 9.30146C8.06619 10.0279 8.67194 10.6165 9.41945 10.6165C10.1667 10.6165 10.7727 10.0279 10.7727 9.30146C10.7727 8.57527 10.1667 7.98642 9.41945 7.98642C8.67194 7.98642 8.06619 8.57527 8.06619 9.30146ZM16.1322 9.30146C16.1322 10.0279 16.7381 10.6165 17.4854 10.6165C18.2329 10.6165 18.8389 10.0279 18.8389 9.30146C18.8389 8.57527 18.2329 7.98642 17.4854 7.98642C16.7381 7.98642 16.1322 8.57527 16.1322 9.30146ZM0 17.1398C0 17.866 0.605964 18.4549 1.35326 18.4549C2.10077 18.4549 2.70652 17.866 2.70652 17.1398C2.70652 16.4134 2.10077 15.8248 1.35326 15.8248C0.605964 15.8248 0 16.4134 0 17.1398ZM8.06619 17.1398C8.06619 17.866 8.67194 18.4549 9.41945 18.4549C10.1667 18.4549 10.7727 17.866 10.7727 17.1398C10.7727 16.4134 10.1667 15.8248 9.41945 15.8248C8.67194 15.8248 8.06619 16.4134 8.06619 17.1398ZM32.0955 40.6547C32.0955 41.3809 32.7013 41.9698 33.4488 41.9698C34.1963 41.9698 34.8021 41.3809 34.8021 40.6547C34.8021 39.9283 34.1963 39.3397 33.4488 39.3397C32.7013 39.3397 32.0955 39.9283 32.0955 40.6547ZM32.0955 32.8164C32.0955 33.5428 32.7013 34.1314 33.4488 34.1314C34.1963 34.1314 34.8021 33.5428 34.8021 32.8164C34.8021 32.0902 34.1963 31.5013 33.4488 31.5013C32.7013 31.5013 32.0955 32.0902 32.0955 32.8164ZM40.1617 32.8164C40.1617 33.5428 40.7675 34.1314 41.515 34.1314C42.2623 34.1314 42.8683 33.5428 42.8683 32.8164C42.8683 32.0902 42.2623 31.5013 41.515 31.5013C40.7675 31.5013 40.1617 32.0902 40.1617 32.8164ZM24.0294 40.6547C24.0294 41.3809 24.6353 41.9698 25.3828 41.9698C26.1301 41.9698 26.7361 41.3809 26.7361 40.6547C26.7361 39.9283 26.1301 39.3397 25.3828 39.3397C24.6351 39.3397 24.0294 39.9283 24.0294 40.6547ZM40.1617 40.6547C40.1617 41.3809 40.7675 41.9698 41.515 41.9698C42.2623 41.9698 42.8683 41.3809 42.8683 40.6547C42.8683 39.9283 42.2623 39.3397 41.515 39.3397C40.7675 39.3397 40.1617 39.9283 40.1617 40.6547ZM24.0294 24.978C24.0294 25.7044 24.6353 26.2933 25.3828 26.2933C26.1301 26.2933 26.7361 25.7044 26.7361 24.9782C26.7361 24.2518 26.1301 23.663 25.3828 23.663C24.6351 23.663 24.0294 24.2516 24.0294 24.978ZM24.0294 32.8166C24.0294 33.543 24.6353 34.1316 25.3828 34.1316C26.1301 34.1316 26.7361 33.543 26.7361 32.8166C26.7361 32.0904 26.1301 31.5015 25.3828 31.5015C24.6351 31.5015 24.0294 32.0904 24.0294 32.8166ZM40.1617 24.9784C40.1617 25.7046 40.7675 26.2935 41.515 26.2935C42.2623 26.2935 42.8683 25.7046 42.8683 24.9784C42.8683 24.252 42.2623 23.6632 41.515 23.6632C40.7675 23.6632 40.1617 24.252 40.1617 24.9784ZM32.0955 24.9784C32.0955 25.7046 32.7013 26.2935 33.4488 26.2935C34.1963 26.2935 34.8021 25.7046 34.8021 24.9784C34.8021 24.252 34.1963 23.6632 33.4488 23.6632C32.7013 23.6632 32.0955 24.252 32.0955 24.9784ZM40.1617 17.14C40.1617 17.8662 40.7675 18.4551 41.515 18.4551C42.2623 18.4551 42.8683 17.8662 42.8683 17.14C42.8683 16.4136 42.2623 15.825 41.515 15.825C40.7675 15.825 40.1617 16.4136 40.1617 17.14ZM24.0294 9.30167C24.0294 10.0281 24.6353 10.6167 25.3828 10.6167C26.1301 10.6167 26.7361 10.0281 26.7361 9.30167C26.7361 8.57548 26.1301 7.98664 25.3828 7.98664C24.6351 7.98664 24.0294 8.57548 24.0294 9.30167ZM32.0955 9.30167C32.0955 10.0281 32.7013 10.6167 33.4488 10.6167C34.1963 10.6167 34.8021 10.0281 34.8021 9.30167C34.8021 8.57548 34.1963 7.98664 33.4488 7.98664C32.7013 7.98664 32.0955 8.57548 32.0955 9.30167ZM40.1617 9.30167C40.1617 10.0281 40.7675 10.6167 41.515 10.6167C42.2623 10.6167 42.8683 10.0281 42.8683 9.30167C42.8683 8.57548 42.2623 7.98664 41.515 7.98664C40.7675 7.98664 40.1617 8.57548 40.1617 9.30167ZM24.0294 17.14C24.0294 17.8662 24.6353 18.4551 25.3828 18.4551C26.1301 18.4551 26.7361 17.8662 26.7361 17.14C26.7361 16.4136 26.1301 15.825 25.3828 15.825C24.6351 15.825 24.0294 16.4136 24.0294 17.14ZM32.0955 17.14C32.0955 17.8662 32.7013 18.4551 33.4488 18.4551C34.1963 18.4551 34.8021 17.8662 34.8021 17.14C34.8021 16.4136 34.1963 15.825 33.4488 15.825C32.7013 15.825 32.0955 16.4136 32.0955 17.14ZM56.1966 40.6549C56.1966 41.3811 56.8026 41.97 57.5501 41.97C58.2974 41.97 58.9034 41.3811 58.9034 40.6549C58.9034 39.9285 58.2974 39.3399 57.5501 39.3399C56.8024 39.3399 56.1966 39.9285 56.1966 40.6549ZM56.1966 32.8166C56.1966 33.543 56.8026 34.1316 57.5501 34.1316C58.2974 34.1316 58.9034 33.543 58.9034 32.8166C58.9034 32.0904 58.2974 31.5015 57.5501 31.5015C56.8024 31.5015 56.1966 32.0904 56.1966 32.8166ZM64.2628 32.8166C64.2628 33.543 64.8688 34.1316 65.6161 34.1316C66.3636 34.1316 66.9694 33.543 66.9694 32.8166C66.9694 32.0904 66.3636 31.5015 65.6161 31.5015C64.8688 31.5015 64.2628 32.0904 64.2628 32.8166ZM48.1305 40.6549C48.1305 41.3811 48.7364 41.97 49.4839 41.97C50.2312 41.97 50.8372 41.3811 50.8372 40.6549C50.8372 39.9285 50.2312 39.3399 49.4839 39.3399C48.7364 39.3399 48.1305 39.9285 48.1305 40.6549ZM64.263 40.6549C64.263 41.3811 64.869 41.97 65.6163 41.97C66.3638 41.97 66.9696 41.3811 66.9696 40.6549C66.9696 39.9285 66.3638 39.3399 65.6163 39.3399C64.869 39.3399 64.263 39.9285 64.263 40.6549ZM48.1307 24.9782C48.1307 25.7046 48.7366 26.2935 49.4841 26.2935C50.2314 26.2935 50.8374 25.7046 50.8374 24.9784C50.8374 24.252 50.2314 23.6632 49.4841 23.6632C48.7366 23.6632 48.1307 24.2518 48.1307 24.9782ZM48.1309 32.8168C48.1309 33.5432 48.7368 34.1318 49.4844 34.1318C50.2317 34.1318 50.8376 33.5432 50.8376 32.8168C50.8376 32.0906 50.2317 31.5017 49.4844 31.5017C48.7368 31.5017 48.1309 32.0906 48.1309 32.8168ZM64.2635 24.9786C64.2635 25.7048 64.8694 26.2937 65.6167 26.2937C66.3643 26.2937 66.97 25.7048 66.97 24.9786C66.97 24.2522 66.3643 23.6634 65.6167 23.6634C64.8694 23.6634 64.2635 24.2522 64.2635 24.9786ZM56.1973 24.9786C56.1973 25.7048 56.8033 26.2937 57.5508 26.2937C58.2981 26.2937 58.904 25.7048 58.904 24.9786C58.904 24.2522 58.2981 23.6634 57.5508 23.6634C56.803 23.6634 56.1973 24.2522 56.1973 24.9786ZM64.2635 17.1403C64.2635 17.8664 64.8694 18.4553 65.6167 18.4553C66.3643 18.4553 66.97 17.8664 66.97 17.1403C66.97 16.4138 66.3643 15.8252 65.6167 15.8252C64.8694 15.8252 64.2635 16.4138 64.2635 17.1403ZM48.1311 9.30189C48.1311 10.0283 48.7371 10.6169 49.4846 10.6169C50.2319 10.6169 50.8378 10.0283 50.8378 9.30189C50.8378 8.5757 50.2319 7.98685 49.4846 7.98685C48.7371 7.98685 48.1311 8.5757 48.1311 9.30189ZM56.1975 9.30189C56.1975 10.0283 56.8035 10.6169 57.551 10.6169C58.2983 10.6169 58.9042 10.0283 58.9042 9.30189C58.9042 8.5757 58.2983 7.98685 57.551 7.98685C56.8033 7.98685 56.1975 8.5757 56.1975 9.30189ZM64.2637 9.30189C64.2637 10.0283 64.8697 10.6169 65.617 10.6169C66.3645 10.6169 66.9702 10.0283 66.9702 9.30189C66.9702 8.5757 66.3645 7.98685 65.617 7.98685C64.8697 7.98685 64.2637 8.5757 64.2637 9.30189ZM48.1313 17.1403C48.1313 17.8664 48.7373 18.4553 49.4848 18.4553C50.2321 18.4553 50.8381 17.8664 50.8381 17.1403C50.8381 16.4138 50.2321 15.8252 49.4848 15.8252C48.7373 15.8252 48.1313 16.4138 48.1313 17.1403ZM56.1977 17.1403C56.1977 17.8664 56.8037 18.4553 57.5512 18.4553C58.2985 18.4553 58.9045 17.8664 58.9045 17.1403C58.9045 16.4138 58.2985 15.8252 57.5512 15.8252C56.8035 15.8252 56.1977 16.4138 56.1977 17.1403ZM80.2273 40.6552C80.2273 41.3813 80.833 41.9702 81.5806 41.9702C82.3278 41.9702 82.9338 41.3813 82.9338 40.6552C82.9338 39.9288 82.3278 39.3401 81.5806 39.3401C80.833 39.3401 80.2273 39.9288 80.2273 40.6552ZM80.2273 32.8168C80.2273 33.5432 80.833 34.1318 81.5806 34.1318C82.3278 34.1318 82.9338 33.5432 82.9338 32.8168C82.9338 32.0906 82.3278 31.5017 81.5806 31.5017C80.833 31.5017 80.2273 32.0906 80.2273 32.8168ZM88.2933 32.8168C88.2933 33.5432 88.8992 34.1318 89.6465 34.1318C90.3943 34.1318 91 33.5432 91 32.8168C91 32.0906 90.394 31.5017 89.6465 31.5017C88.8992 31.5017 88.2933 32.0906 88.2933 32.8168ZM72.1602 40.6549C72.1602 41.3811 72.7662 41.97 73.5135 41.97C74.261 41.97 74.8668 41.3811 74.8668 40.6549C74.8668 39.9285 74.261 39.3399 73.5135 39.3399C72.7662 39.3399 72.1602 39.9285 72.1602 40.6549ZM88.2926 40.6549C88.2926 41.3811 88.8984 41.97 89.6457 41.97C90.3934 41.97 90.9991 41.3811 90.9991 40.6549C90.9991 39.9285 90.3932 39.3399 89.6457 39.3399C88.8984 39.3399 88.2926 39.9285 88.2926 40.6549ZM72.16 24.9782C72.16 25.7046 72.766 26.2935 73.5133 26.2935C74.2608 26.2935 74.8665 25.7046 74.8665 24.9784C74.8665 24.252 74.2608 23.6632 73.5133 23.6632C72.766 23.6632 72.16 24.2518 72.16 24.9782ZM72.16 32.8168C72.16 33.5432 72.766 34.1318 73.5133 34.1318C74.2608 34.1318 74.8665 33.5432 74.8665 32.8168C74.8665 32.0906 74.2608 31.5017 73.5133 31.5017C72.766 31.5017 72.16 32.0906 72.16 32.8168ZM88.2924 24.9786C88.2924 25.7048 88.8981 26.2937 89.6454 26.2937C90.3932 26.2937 90.9989 25.7048 90.9989 24.9786C90.9989 24.2522 90.393 23.6634 89.6454 23.6634C88.8981 23.6634 88.2924 24.2522 88.2924 24.9786ZM80.226 24.9786C80.226 25.7048 80.8317 26.2937 81.5793 26.2937C82.3266 26.2937 82.9325 25.7048 82.9325 24.9786C82.9325 24.2522 82.3266 23.6634 81.5793 23.6634C80.8317 23.6634 80.226 24.2522 80.226 24.9786ZM88.292 17.1403C88.292 17.8664 88.8979 18.4553 89.6452 18.4553C90.393 18.4553 90.9987 17.8664 90.9987 17.1403C90.9987 16.4138 90.3927 15.8252 89.6452 15.8252C88.8979 15.8252 88.292 16.4138 88.292 17.1403ZM72.1602 9.30146C72.1602 10.0279 72.7662 10.6165 73.5135 10.6165C74.261 10.6165 74.8668 10.0279 74.8668 9.30146C74.8668 8.57527 74.261 7.98642 73.5135 7.98642C72.7662 7.98642 72.1602 8.57527 72.1602 9.30146ZM80.2264 9.30146C80.2264 10.0279 80.8322 10.6165 81.5797 10.6165C82.327 10.6165 82.9329 10.0279 82.9329 9.30146C82.9329 8.57527 82.327 7.98642 81.5797 7.98642C80.8322 7.98642 80.2264 8.57527 80.2264 9.30146ZM88.2924 9.30146C88.2924 10.0279 88.8984 10.6165 89.6457 10.6165C90.3934 10.6165 90.9991 10.0279 90.9991 9.30146C90.9991 8.57527 90.3932 7.98642 89.6457 7.98642C88.8984 7.98642 88.2924 8.57527 88.2924 9.30146ZM72.1602 17.1398C72.1602 17.866 72.7662 18.4549 73.5135 18.4549C74.261 18.4549 74.8668 17.866 74.8668 17.1398C74.8668 16.4134 74.261 15.8248 73.5135 15.8248C72.7662 15.8248 72.1602 16.4134 72.1602 17.1398ZM80.2264 17.1398C80.2264 17.866 80.8322 18.4549 81.5797 18.4549C82.327 18.4549 82.9329 17.866 82.9329 17.1398C82.9329 16.4134 82.327 15.8248 81.5797 15.8248C80.8322 15.8248 80.2264 16.4134 80.2264 17.1398Z" fill="#707070"/>
</svg>
