<svg width="29" height="28" viewBox="0 0 29 28" fill="none" xmlns="http://www.w3.org/2000/svg">
<path d="M14.2986 0.0838623C6.63409 0.0838623 0.398499 6.31946 0.398499 13.984C0.398499 21.6485 6.63409 27.8841 14.2986 27.8841C21.9632 27.8841 28.1987 21.6485 28.1987 13.984C28.1987 6.31946 21.9632 0.0838623 14.2986 0.0838623ZM14.2986 26.0308C7.65599 26.0308 2.25185 20.6266 2.25185 13.984C2.25185 7.34135 7.65599 1.93721 14.2986 1.93721C20.9413 1.93721 26.3454 7.34135 26.3454 13.984C26.3454 20.6266 20.9413 26.0308 14.2986 26.0308Z" fill="white"/>
<path d="M12.8674 7.80016C12.5055 7.43852 11.9189 7.43852 11.5568 7.80016C11.195 8.16202 11.195 8.74884 11.5568 9.11071L16.4302 13.9841L11.5568 18.8577C11.195 19.2196 11.195 19.8064 11.5568 20.168C11.7378 20.349 11.975 20.4395 12.2122 20.4395C12.4495 20.4395 12.6864 20.349 12.8676 20.168L18.3962 14.6393C18.758 14.2774 18.758 13.6908 18.3962 13.3287L12.8674 7.80016Z" fill="white"/>
</svg>
