<svg width="92" height="44" viewBox="0 0 92 44" fill="none" xmlns="http://www.w3.org/2000/svg">
<path d="M8.15483 1.51764C8.15483 2.27647 8.76723 2.89178 9.52296 2.89178C10.2785 2.89178 10.8911 2.27647 10.8911 1.51764C10.8911 0.758591 10.2785 0.143494 9.52296 0.143494C8.76723 0.143494 8.15483 0.758591 8.15483 1.51764ZM0 1.51764C0 2.27647 0.612623 2.89178 1.36813 2.89178C2.12386 2.89178 2.73626 2.27647 2.73626 1.51764C2.73626 0.758591 2.12386 0.143494 1.36813 0.143494C0.612623 0.143494 0 0.758591 0 1.51764ZM16.3097 1.51764C16.3097 2.27647 16.9221 2.89178 17.6776 2.89178C18.4333 2.89178 19.0459 2.27647 19.0459 1.51764C19.0459 0.758591 18.4333 0.143494 17.6776 0.143494C16.9221 0.143494 16.3097 0.758591 16.3097 1.51764ZM32.4482 1.51764C32.4482 2.27647 33.0606 2.89178 33.8164 2.89178C34.5721 2.89178 35.1845 2.27647 35.1845 1.51764C35.1845 0.758591 34.5721 0.143494 33.8164 0.143494C33.0606 0.143494 32.4482 0.758591 32.4482 1.51764ZM24.2934 1.51764C24.2934 2.27647 24.906 2.89178 25.6618 2.89178C26.4173 2.89178 27.0299 2.27647 27.0299 1.51764C27.0299 0.758591 26.4173 0.143494 25.6618 0.143494C24.9058 0.143494 24.2934 0.758591 24.2934 1.51764ZM40.6031 1.51764C40.6031 2.27647 41.2155 2.89178 41.9712 2.89178C42.7267 2.89178 43.3393 2.27647 43.3393 1.51764C43.3393 0.758591 42.7267 0.143494 41.9712 0.143494C41.2155 0.143494 40.6031 0.758591 40.6031 1.51764ZM56.814 1.51764C56.814 2.27647 57.4266 2.89178 58.1823 2.89178C58.9378 2.89178 59.5504 2.27647 59.5504 1.51764C59.5504 0.758591 58.9378 0.143494 58.1823 0.143494C57.4264 0.143494 56.814 0.758591 56.814 1.51764ZM48.6594 1.51764C48.6594 2.27647 49.2718 2.89178 50.0275 2.89178C50.783 2.89178 51.3956 2.27647 51.3956 1.51764C51.3956 0.758591 50.783 0.143494 50.0275 0.143494C49.2718 0.143494 48.6594 0.758591 48.6594 1.51764ZM64.9688 1.51764C64.9688 2.27647 65.5814 2.89178 66.3369 2.89178C67.0927 2.89178 67.7051 2.27647 67.7051 1.51764C67.7051 0.758591 67.0927 0.143494 66.3369 0.143494C65.5814 0.143494 64.9688 0.758591 64.9688 1.51764ZM81.1078 1.51764C81.1078 2.27647 81.7202 2.89178 82.4759 2.89178C83.2315 2.89178 83.8441 2.27647 83.8441 1.51764C83.8441 0.758591 83.2315 0.143494 82.4759 0.143494C81.7202 0.143494 81.1078 0.758591 81.1078 1.51764ZM72.953 1.51764C72.953 2.27647 73.5656 2.89178 74.3211 2.89178C75.0768 2.89178 75.6893 2.27647 75.6893 1.51764C75.6893 0.758591 75.0768 0.143494 74.3211 0.143494C73.5656 0.143494 72.953 0.758591 72.953 1.51764ZM89.2626 1.51764C89.2626 2.27647 89.875 2.89178 90.6306 2.89178C91.3865 2.89178 91.9989 2.27647 91.9989 1.51764C91.9989 0.758591 91.3863 0.143494 90.6306 0.143494C89.875 0.143494 89.2626 0.758591 89.2626 1.51764ZM8.15461 42.6254C8.15461 43.3842 8.76723 43.9995 9.52296 43.9995C10.2785 43.9995 10.8911 43.3842 10.8911 42.6254C10.8911 41.8664 10.2785 41.2513 9.52296 41.2513C8.76723 41.2513 8.15461 41.8664 8.15461 42.6254ZM8.15483 34.4348C8.15483 35.1938 8.76745 35.8089 9.52318 35.8089C10.2787 35.8089 10.8913 35.1938 10.8913 34.4348C10.8913 33.6759 10.2787 33.0606 9.52318 33.0606C8.76745 33.0606 8.15483 33.6759 8.15483 34.4348ZM16.3099 34.4348C16.3099 35.1938 16.9225 35.8089 17.678 35.8089C18.4337 35.8089 19.0464 35.1938 19.0464 34.4348C19.0464 33.6759 18.4337 33.0606 17.678 33.0606C16.9225 33.0606 16.3099 33.6759 16.3099 34.4348ZM0 42.6256C0 43.3845 0.612623 43.9998 1.36813 43.9998C2.12386 43.9998 2.73626 43.3845 2.73626 42.6256C2.73626 41.8666 2.12386 41.2515 1.36813 41.2515C0.612623 41.2515 0 41.8666 0 42.6256ZM16.3097 42.6256C16.3097 43.3845 16.9221 43.9998 17.6776 43.9998C18.4333 43.9998 19.0459 43.3845 19.0459 42.6256C19.0459 41.8666 18.4333 41.2515 17.6776 41.2515C16.9221 41.2515 16.3097 41.8666 16.3097 42.6256ZM0 26.2441C0 27.0031 0.612623 27.6185 1.36813 27.6185C2.12386 27.6185 2.73626 27.0031 2.73626 26.2443C2.73626 25.4853 2.12386 24.87 1.36813 24.87C0.612623 24.87 0 25.485 0 26.2441ZM0 34.435C0 35.194 0.612623 35.8091 1.36813 35.8091C2.12386 35.8091 2.73626 35.194 2.73626 34.435C2.73626 33.6761 2.12386 33.0608 1.36813 33.0608C0.612623 33.0608 0 33.6761 0 34.435ZM16.3097 26.2445C16.3097 27.0034 16.9221 27.6187 17.6776 27.6187C18.4333 27.6187 19.0459 27.0034 19.0459 26.2445C19.0459 25.4855 18.4333 24.8702 17.6776 24.8702C16.9221 24.8702 16.3097 25.4855 16.3097 26.2445ZM8.15461 26.2445C8.15461 27.0034 8.76701 27.6187 9.52274 27.6187C10.2782 27.6187 10.8909 27.0034 10.8909 26.2445C10.8909 25.4855 10.2782 24.8702 9.52274 24.8702C8.76701 24.8702 8.15461 25.4855 8.15461 26.2445ZM16.3092 18.0539C16.3092 18.8127 16.9218 19.428 17.6774 19.428C18.4331 19.428 19.0457 18.8127 19.0457 18.0539C19.0457 17.2948 18.4331 16.6797 17.6774 16.6797C16.9218 16.6797 16.3092 17.2948 16.3092 18.0539ZM0 9.863C0 10.622 0.612623 11.2371 1.36813 11.2371C2.12386 11.2371 2.73626 10.622 2.73626 9.863C2.73626 9.10417 2.12386 8.48886 1.36813 8.48886C0.612623 8.48886 0 9.10417 0 9.863ZM8.15483 9.863C8.15483 10.622 8.76723 11.2371 9.52296 11.2371C10.2785 11.2371 10.8911 10.622 10.8911 9.863C10.8911 9.10417 10.2785 8.48886 9.52296 8.48886C8.76723 8.48886 8.15483 9.10417 8.15483 9.863ZM16.3094 9.863C16.3094 10.622 16.9221 11.2371 17.6776 11.2371C18.4333 11.2371 19.0459 10.622 19.0459 9.863C19.0459 9.10417 18.4333 8.48886 17.6776 8.48886C16.9221 8.48886 16.3094 9.10417 16.3094 9.863ZM0 18.0537C0 18.8125 0.612623 19.4278 1.36813 19.4278C2.12386 19.4278 2.73626 18.8125 2.73626 18.0537C2.73626 17.2946 2.12386 16.6795 1.36813 16.6795C0.612623 16.6795 0 17.2946 0 18.0537ZM8.15483 18.0537C8.15483 18.8125 8.76723 19.4278 9.52296 19.4278C10.2785 19.4278 10.8911 18.8125 10.8911 18.0537C10.8911 17.2946 10.2785 16.6795 9.52296 16.6795C8.76723 16.6795 8.15483 17.2946 8.15483 18.0537ZM32.4482 42.6254C32.4482 43.3842 33.0606 43.9995 33.8164 43.9995C34.5721 43.9995 35.1845 43.3842 35.1845 42.6254C35.1845 41.8664 34.5721 41.2513 33.8164 41.2513C33.0606 41.2513 32.4482 41.8664 32.4482 42.6254ZM32.4482 34.4348C32.4482 35.1938 33.0606 35.8089 33.8164 35.8089C34.5721 35.8089 35.1845 35.1938 35.1845 34.4348C35.1845 33.6759 34.5721 33.0606 33.8164 33.0606C33.0606 33.0606 32.4482 33.6759 32.4482 34.4348ZM40.6031 34.4348C40.6031 35.1938 41.2155 35.8089 41.9712 35.8089C42.7267 35.8089 43.3393 35.1938 43.3393 34.4348C43.3393 33.6759 42.7267 33.0606 41.9712 33.0606C41.2155 33.0606 40.6031 33.6759 40.6031 34.4348ZM24.2934 42.6254C24.2934 43.3842 24.906 43.9995 25.6618 43.9995C26.4173 43.9995 27.0299 43.3842 27.0299 42.6254C27.0299 41.8664 26.4173 41.2513 25.6618 41.2513C24.9058 41.2513 24.2934 41.8664 24.2934 42.6254ZM40.6031 42.6254C40.6031 43.3842 41.2155 43.9995 41.9712 43.9995C42.7267 43.9995 43.3393 43.3842 43.3393 42.6254C43.3393 41.8664 42.7267 41.2513 41.9712 41.2513C41.2155 41.2513 40.6031 41.8664 40.6031 42.6254ZM24.2934 26.2441C24.2934 27.0031 24.906 27.6185 25.6618 27.6185C26.4173 27.6185 27.0299 27.0031 27.0299 26.2443C27.0299 25.4853 26.4173 24.87 25.6618 24.87C24.9058 24.87 24.2934 25.485 24.2934 26.2441ZM24.2934 34.435C24.2934 35.194 24.906 35.8091 25.6618 35.8091C26.4173 35.8091 27.0299 35.194 27.0299 34.435C27.0299 33.6761 26.4173 33.0608 25.6618 33.0608C24.9058 33.0608 24.2934 33.6761 24.2934 34.435ZM40.6031 26.2445C40.6031 27.0034 41.2155 27.6187 41.9712 27.6187C42.7267 27.6187 43.3393 27.0034 43.3393 26.2445C43.3393 25.4855 42.7267 24.8702 41.9712 24.8702C41.2155 24.8702 40.6031 25.4855 40.6031 26.2445ZM32.4482 26.2445C32.4482 27.0034 33.0606 27.6187 33.8164 27.6187C34.5721 27.6187 35.1845 27.0034 35.1845 26.2445C35.1845 25.4855 34.5721 24.8702 33.8164 24.8702C33.0606 24.8702 32.4482 25.4855 32.4482 26.2445ZM40.6031 18.0539C40.6031 18.8127 41.2155 19.428 41.9712 19.428C42.7267 19.428 43.3393 18.8127 43.3393 18.0539C43.3393 17.2948 42.7267 16.6797 41.9712 16.6797C41.2155 16.6797 40.6031 17.2948 40.6031 18.0539ZM24.2934 9.86322C24.2934 10.6223 24.906 11.2374 25.6618 11.2374C26.4173 11.2374 27.0299 10.6223 27.0299 9.86322C27.0299 9.10439 26.4173 8.48908 25.6618 8.48908C24.9058 8.48908 24.2934 9.10439 24.2934 9.86322ZM32.4482 9.86322C32.4482 10.6223 33.0606 11.2374 33.8164 11.2374C34.5721 11.2374 35.1845 10.6223 35.1845 9.86322C35.1845 9.10439 34.5721 8.48908 33.8164 8.48908C33.0606 8.48908 32.4482 9.10439 32.4482 9.86322ZM40.6031 9.86322C40.6031 10.6223 41.2155 11.2374 41.9712 11.2374C42.7267 11.2374 43.3393 10.6223 43.3393 9.86322C43.3393 9.10439 42.7267 8.48908 41.9712 8.48908C41.2155 8.48908 40.6031 9.10439 40.6031 9.86322ZM24.2934 18.0539C24.2934 18.8127 24.906 19.428 25.6618 19.428C26.4173 19.428 27.0299 18.8127 27.0299 18.0539C27.0299 17.2948 26.4173 16.6797 25.6618 16.6797C24.9058 16.6797 24.2934 17.2948 24.2934 18.0539ZM32.4482 18.0539C32.4482 18.8127 33.0606 19.428 33.8164 19.428C34.5721 19.428 35.1845 18.8127 35.1845 18.0539C35.1845 17.2948 34.5721 16.6797 33.8164 16.6797C33.0606 16.6797 32.4482 17.2948 32.4482 18.0539ZM56.8142 42.6256C56.8142 43.3845 57.4268 43.9998 58.1825 43.9998C58.938 43.9998 59.5507 43.3845 59.5507 42.6256C59.5507 41.8666 58.938 41.2515 58.1825 41.2515C57.4266 41.2515 56.8142 41.8666 56.8142 42.6256ZM56.8142 34.435C56.8142 35.194 57.4268 35.8091 58.1825 35.8091C58.938 35.8091 59.5507 35.194 59.5507 34.435C59.5507 33.6761 58.938 33.0608 58.1825 33.0608C57.4266 33.0608 56.8142 33.6761 56.8142 34.435ZM64.969 34.435C64.969 35.194 65.5816 35.8091 66.3371 35.8091C67.0929 35.8091 67.7053 35.194 67.7053 34.435C67.7053 33.6761 67.0929 33.0608 66.3371 33.0608C65.5816 33.0608 64.969 33.6761 64.969 34.435ZM48.6594 42.6256C48.6594 43.3845 49.272 43.9998 50.0277 43.9998C50.7832 43.9998 51.3958 43.3845 51.3958 42.6256C51.3958 41.8666 50.7832 41.2515 50.0277 41.2515C49.272 41.2515 48.6594 41.8666 48.6594 42.6256ZM64.9692 42.6256C64.9692 43.3845 65.5819 43.9998 66.3374 43.9998C67.0931 43.9998 67.7055 43.3845 67.7055 42.6256C67.7055 41.8666 67.0931 41.2515 66.3374 41.2515C65.5819 41.2515 64.9692 41.8666 64.9692 42.6256ZM48.6596 26.2443C48.6596 27.0034 49.2722 27.6187 50.0279 27.6187C50.7834 27.6187 51.3961 27.0034 51.3961 26.2445C51.3961 25.4855 50.7834 24.8702 50.0279 24.8702C49.2722 24.8702 48.6596 25.4853 48.6596 26.2443ZM48.6598 34.4352C48.6598 35.1942 49.2724 35.8093 50.0281 35.8093C50.7837 35.8093 51.3963 35.1942 51.3963 34.4352C51.3963 33.6764 50.7837 33.0611 50.0281 33.0611C49.2724 33.0611 48.6598 33.6764 48.6598 34.4352ZM64.9697 26.2448C64.9697 27.0036 65.5823 27.6189 66.3378 27.6189C67.0935 27.6189 67.7059 27.0036 67.7059 26.2448C67.7059 25.4857 67.0935 24.8704 66.3378 24.8704C65.5823 24.8704 64.9697 25.4857 64.9697 26.2448ZM56.8148 26.2448C56.8148 27.0036 57.4275 27.6189 58.1832 27.6189C58.9387 27.6189 59.5513 27.0036 59.5513 26.2448C59.5513 25.4857 58.9387 24.8704 58.1832 24.8704C57.4272 24.8704 56.8148 25.4857 56.8148 26.2448ZM64.9697 18.0541C64.9697 18.8129 65.5823 19.4282 66.3378 19.4282C67.0935 19.4282 67.7059 18.8129 67.7059 18.0541C67.7059 17.295 67.0935 16.68 66.3378 16.68C65.5823 16.68 64.9697 17.295 64.9697 18.0541ZM48.66 9.86344C48.66 10.6225 49.2726 11.2376 50.0284 11.2376C50.7839 11.2376 51.3965 10.6225 51.3965 9.86344C51.3965 9.10461 50.7839 8.4893 50.0284 8.4893C49.2726 8.4893 48.66 9.10461 48.66 9.86344ZM56.8151 9.86344C56.8151 10.6225 57.4277 11.2376 58.1834 11.2376C58.9389 11.2376 59.5515 10.6225 59.5515 9.86344C59.5515 9.10461 58.9389 8.4893 58.1834 8.4893C57.4275 8.4893 56.8151 9.10461 56.8151 9.86344ZM64.9699 9.86344C64.9699 10.6225 65.5825 11.2376 66.338 11.2376C67.0937 11.2376 67.7062 10.6225 67.7062 9.86344C67.7062 9.10461 67.0937 8.4893 66.338 8.4893C65.5825 8.4893 64.9699 9.10461 64.9699 9.86344ZM48.6602 18.0541C48.6602 18.8129 49.2729 19.4282 50.0286 19.4282C50.7841 19.4282 51.3967 18.8129 51.3967 18.0541C51.3967 17.295 50.7841 16.68 50.0286 16.68C49.2729 16.68 48.6602 17.295 48.6602 18.0541ZM56.8153 18.0541C56.8153 18.8129 57.4279 19.4282 58.1836 19.4282C58.9391 19.4282 59.5518 18.8129 59.5518 18.0541C59.5518 17.295 58.9391 16.68 58.1836 16.68C57.4277 16.68 56.8153 17.295 56.8153 18.0541ZM81.1089 42.6258C81.1089 43.3847 81.7213 44 82.477 44C83.2326 44 83.8452 43.3847 83.8452 42.6258C83.8452 41.8668 83.2326 41.2517 82.477 41.2517C81.7213 41.2517 81.1089 41.8668 81.1089 42.6258ZM81.1089 34.4352C81.1089 35.1942 81.7213 35.8093 82.477 35.8093C83.2326 35.8093 83.8452 35.1942 83.8452 34.4352C83.8452 33.6764 83.2326 33.0611 82.477 33.0611C81.7213 33.0611 81.1089 33.6764 81.1089 34.4352ZM89.2635 34.4352C89.2635 35.1942 89.8761 35.8093 90.6317 35.8093C91.3876 35.8093 92 35.1942 92 34.4352C92 33.6764 91.3874 33.0611 90.6317 33.0611C89.8761 33.0611 89.2635 33.6764 89.2635 34.4352ZM72.9532 42.6256C72.9532 43.3845 73.5658 43.9998 74.3213 43.9998C75.0771 43.9998 75.6895 43.3845 75.6895 42.6256C75.6895 41.8666 75.0771 41.2515 74.3213 41.2515C73.5658 41.2515 72.9532 41.8666 72.9532 42.6256ZM89.2629 42.6256C89.2629 43.3845 89.8753 43.9998 90.6308 43.9998C91.3867 43.9998 91.9991 43.3845 91.9991 42.6256C91.9991 41.8666 91.3865 41.2515 90.6308 41.2515C89.8753 41.2515 89.2629 41.8666 89.2629 42.6256ZM72.953 26.2443C72.953 27.0034 73.5656 27.6187 74.3211 27.6187C75.0768 27.6187 75.6893 27.0034 75.6893 26.2445C75.6893 25.4855 75.0768 24.8702 74.3211 24.8702C73.5656 24.8702 72.953 25.4853 72.953 26.2443ZM72.953 34.4352C72.953 35.1942 73.5656 35.8093 74.3211 35.8093C75.0768 35.8093 75.6893 35.1942 75.6893 34.4352C75.6893 33.6764 75.0768 33.0611 74.3211 33.0611C73.5656 33.0611 72.953 33.6764 72.953 34.4352ZM89.2626 26.2448C89.2626 27.0036 89.875 27.6189 90.6306 27.6189C91.3865 27.6189 91.9989 27.0036 91.9989 26.2448C91.9989 25.4857 91.3863 24.8704 90.6306 24.8704C89.875 24.8704 89.2626 25.4857 89.2626 26.2448ZM81.1076 26.2448C81.1076 27.0036 81.72 27.6189 82.4757 27.6189C83.2312 27.6189 83.8439 27.0036 83.8439 26.2448C83.8439 25.4857 83.2312 24.8704 82.4757 24.8704C81.72 24.8704 81.1076 25.4857 81.1076 26.2448ZM89.2622 18.0541C89.2622 18.8129 89.8748 19.4282 90.6303 19.4282C91.3863 19.4282 91.9987 18.8129 91.9987 18.0541C91.9987 17.295 91.3861 16.68 90.6303 16.68C89.8748 16.68 89.2622 17.295 89.2622 18.0541ZM72.9532 9.863C72.9532 10.622 73.5658 11.2371 74.3213 11.2371C75.0771 11.2371 75.6895 10.622 75.6895 9.863C75.6895 9.10417 75.0771 8.48886 74.3213 8.48886C73.5658 8.48886 72.9532 9.10417 72.9532 9.863ZM81.108 9.863C81.108 10.622 81.7204 11.2371 82.4762 11.2371C83.2317 11.2371 83.8443 10.622 83.8443 9.863C83.8443 9.10417 83.2317 8.48886 82.4762 8.48886C81.7204 8.48886 81.108 9.10417 81.108 9.863ZM89.2626 9.863C89.2626 10.622 89.8753 11.2371 90.6308 11.2371C91.3867 11.2371 91.9991 10.622 91.9991 9.863C91.9991 9.10417 91.3865 8.48886 90.6308 8.48886C89.8753 8.48886 89.2626 9.10417 89.2626 9.863ZM72.9532 18.0537C72.9532 18.8125 73.5658 19.4278 74.3213 19.4278C75.0771 19.4278 75.6895 18.8125 75.6895 18.0537C75.6895 17.2946 75.0771 16.6795 74.3213 16.6795C73.5658 16.6795 72.9532 17.2946 72.9532 18.0537ZM81.108 18.0537C81.108 18.8125 81.7204 19.4278 82.4762 19.4278C83.2317 19.4278 83.8443 18.8125 83.8443 18.0537C83.8443 17.2946 83.2317 16.6795 82.4762 16.6795C81.7204 16.6795 81.108 17.2946 81.108 18.0537Z" fill="#707070"/>
</svg>
