<svg width="31" height="68" viewBox="0 0 31 68" fill="none" xmlns="http://www.w3.org/2000/svg">
<path d="M5.76156 24.9599C5.76156 25.5151 6.19424 25.9648 6.72818 25.9648C7.26196 25.9648 7.69479 25.5149 7.69479 24.9601C7.69479 24.4051 7.26196 23.9551 6.72818 23.9551C6.19424 23.9551 5.76156 24.4049 5.76156 24.9599ZM5.76156 18.9714C5.76156 19.5264 6.19424 19.9761 6.72818 19.9761C7.26196 19.9761 7.69479 19.5264 7.69479 18.9714C7.69479 18.4165 7.26196 17.9666 6.72818 17.9666C6.19424 17.9666 5.76156 18.4165 5.76156 18.9714ZM5.76156 30.9491C5.76156 31.5039 6.19424 31.9537 6.72818 31.9537C7.26196 31.9537 7.69479 31.5039 7.69479 30.9489C7.69479 30.3941 7.26196 29.9442 6.72818 29.9442C6.19424 29.9442 5.76156 30.3942 5.76156 30.9491ZM11.523 18.9712C11.523 19.5262 11.9558 19.9759 12.4896 19.9759C13.0235 19.9759 13.4564 19.5262 13.4564 18.9712C13.4564 18.4163 13.0235 17.9664 12.4896 17.9664C11.9558 17.9664 11.523 18.4163 11.523 18.9712ZM0 24.9599C0 25.5147 0.432831 25.9646 0.966615 25.9646C1.50055 25.9646 1.93323 25.5147 1.93323 24.9599C1.93323 24.4049 1.50055 23.955 0.966615 23.955C0.432831 23.955 0 24.4049 0 24.9599ZM0 30.9486C0 31.5036 0.432831 31.9534 0.966615 31.9534C1.50055 31.9534 1.93323 31.5036 1.93323 30.9486C1.93323 30.3938 1.50055 29.9439 0.966615 29.9439C0.432831 29.9439 0 30.3938 0 30.9486ZM11.5231 24.9599C11.5231 25.5147 11.9558 25.9646 12.4896 25.9646C13.0235 25.9646 13.4564 25.5147 13.4564 24.9599C13.4564 24.4049 13.0235 23.955 12.4896 23.955C11.9558 23.955 11.5231 24.4049 11.5231 24.9599ZM0 12.9822C0 13.5372 0.432831 13.9871 0.966615 13.9871C1.50055 13.9871 1.93323 13.5372 1.93323 12.9822C1.93323 12.4273 1.50055 11.9774 0.966615 11.9774C0.432831 11.9777 0 12.4273 0 12.9822ZM0 18.9712C0 19.5262 0.432831 19.9759 0.966615 19.9759C1.50055 19.9759 1.93323 19.5262 1.93323 18.9712C1.93323 18.4163 1.50055 17.9664 0.966615 17.9664C0.432831 17.9664 0 18.4163 0 18.9712ZM11.5231 12.9822C11.5231 13.5372 11.9558 13.9871 12.4896 13.9871C13.0235 13.9871 13.4564 13.5372 13.4564 12.9822C13.4564 12.4273 13.0235 11.9774 12.4896 11.9774C11.9558 11.9774 11.5231 12.4273 11.5231 12.9822ZM5.76141 12.9822C5.76141 13.5372 6.19408 13.9871 6.72802 13.9871C7.26181 13.9871 7.69464 13.5372 7.69464 12.9822C7.69464 12.4273 7.26181 11.9774 6.72802 11.9774C6.19408 11.9774 5.76141 12.4273 5.76141 12.9822ZM11.5228 30.9486C11.5228 31.5036 11.9556 31.9534 12.4894 31.9534C13.0234 31.9534 13.4562 31.5036 13.4562 30.9486C13.4562 30.3938 13.0234 29.9439 12.4894 29.9439C11.9556 29.9439 11.5228 30.3938 11.5228 30.9486ZM11.5228 6.99346C11.5228 7.5483 11.9556 7.99821 12.4894 7.99821C13.0234 7.99821 13.4562 7.5483 13.4562 6.99346C13.4562 6.43845 13.0234 5.98871 12.4894 5.98871C11.9556 5.98871 11.5228 6.43845 11.5228 6.99346ZM5.76156 36.9376C5.76156 37.4925 6.19424 37.9424 6.72818 37.9424C7.26196 37.9424 7.69479 37.4925 7.69479 36.9376C7.69479 36.3826 7.26196 35.9329 6.72818 35.9329C6.19424 35.9329 5.76156 36.3826 5.76156 36.9376ZM0 36.9376C0 37.4925 0.432831 37.9424 0.966615 37.9424C1.50055 37.9424 1.93323 37.4925 1.93323 36.9376C1.93323 36.3826 1.50055 35.9329 0.966615 35.9329C0.432831 35.9329 0 36.3826 0 36.9376ZM11.5231 36.9376C11.5231 37.4925 11.9558 37.9424 12.4896 37.9424C13.0235 37.9424 13.4564 37.4925 13.4564 36.9376C13.4564 36.3826 13.0235 35.9329 12.4896 35.9329C11.9558 35.9329 11.5231 36.3826 11.5231 36.9376ZM0 1.00475C0 1.55975 0.432831 2.0095 0.966615 2.0095C1.50055 2.0095 1.93323 1.55959 1.93323 1.00475C1.93323 0.449907 1.50055 0 0.966615 0C0.432831 0 0 0.449907 0 1.00475ZM5.76156 1.00475C5.76156 1.55975 6.19424 2.0095 6.72818 2.0095C7.26196 2.0095 7.69479 1.55959 7.69479 1.00475C7.69479 0.449907 7.26196 0 6.72818 0C6.19424 0 5.76156 0.449907 5.76156 1.00475ZM11.523 1.00475C11.523 1.55975 11.9558 2.0095 12.4896 2.0095C13.0235 2.0095 13.4564 1.55959 13.4564 1.00475C13.4564 0.449907 13.0235 0 12.4894 0C11.9556 0 11.523 0.449907 11.523 1.00475ZM0 6.99362C0 7.54846 0.432831 7.99837 0.966615 7.99837C1.50055 7.99837 1.93323 7.54846 1.93323 6.99362C1.93323 6.43861 1.50055 5.98887 0.966615 5.98887C0.432831 5.98887 0 6.43861 0 6.99362ZM5.76156 6.99362C5.76156 7.54846 6.19424 7.99837 6.72818 7.99837C7.26196 7.99837 7.69479 7.54846 7.69479 6.99362C7.69479 6.43861 7.26196 5.98887 6.72818 5.98887C6.19424 5.98887 5.76156 6.43861 5.76156 6.99362ZM22.9254 24.9599C22.9254 25.5147 23.3581 25.9646 23.892 25.9646C24.4259 25.9646 24.8586 25.5147 24.8586 24.9599C24.8586 24.4049 24.4259 23.955 23.892 23.955C23.3581 23.955 22.9254 24.4049 22.9254 24.9599ZM22.9254 18.971C22.9254 19.526 23.3581 19.9758 23.892 19.9758C24.4259 19.9758 24.8586 19.526 24.8586 18.971C24.8586 18.4162 24.4259 17.9663 23.892 17.9663C23.3581 17.9663 22.9254 18.4162 22.9254 18.971ZM22.9254 30.9488C22.9254 31.5036 23.3581 31.9534 23.892 31.9534C24.4259 31.9534 24.8586 31.5036 24.8586 30.9486C24.8586 30.3938 24.4259 29.9439 23.892 29.9439C23.3581 29.9439 22.9254 30.3939 22.9254 30.9488ZM28.6869 18.9709C28.6869 19.5259 29.1196 19.9756 29.6536 19.9756C30.1873 19.9756 30.6202 19.5259 30.6202 18.9709C30.6202 18.416 30.1873 17.9661 29.6536 17.9661C29.1196 17.9661 28.6869 18.416 28.6869 18.9709ZM17.1638 24.9597C17.1638 25.5146 17.5967 25.9645 18.1306 25.9645C18.6644 25.9645 19.0972 25.5146 19.0972 24.9597C19.0972 24.4047 18.6644 23.9548 18.1306 23.9548C17.5965 23.9548 17.1638 24.4047 17.1638 24.9597ZM17.1638 30.9484C17.1638 31.5034 17.5967 31.9532 18.1306 31.9532C18.6644 31.9532 19.0972 31.5034 19.0972 30.9484C19.0972 30.3936 18.6644 29.9437 18.1306 29.9437C17.5965 29.9437 17.1638 30.3936 17.1638 30.9484ZM28.6869 24.9597C28.6869 25.5146 29.1196 25.9645 29.6536 25.9645C30.1873 25.9645 30.6202 25.5146 30.6202 24.9597C30.6202 24.4047 30.1873 23.9548 29.6536 23.9548C29.1196 23.9548 28.6869 24.4047 28.6869 24.9597ZM17.1638 12.982C17.1638 13.537 17.5967 13.9869 18.1306 13.9869C18.6644 13.9869 19.0972 13.537 19.0972 12.982C19.0972 12.4272 18.6644 11.9773 18.1306 11.9773C17.5965 11.9773 17.1638 12.4272 17.1638 12.982ZM17.1638 18.9709C17.1638 19.5259 17.5967 19.9756 18.1306 19.9756C18.6644 19.9756 19.0972 19.5259 19.0972 18.9709C19.0972 18.416 18.6644 17.9661 18.1306 17.9661C17.5965 17.9661 17.1638 18.416 17.1638 18.9709ZM28.6869 12.982C28.6869 13.537 29.1196 13.9869 29.6536 13.9869C30.1873 13.9869 30.6202 13.537 30.6202 12.982C30.6202 12.4272 30.1873 11.9773 29.6536 11.9773C29.1196 11.9773 28.6869 12.4272 28.6869 12.982ZM22.9254 12.982C22.9254 13.537 23.3581 13.9869 23.892 13.9869C24.4259 13.9869 24.8586 13.537 24.8586 12.982C24.8586 12.4272 24.4259 11.9773 23.892 11.9773C23.3581 11.9773 22.9254 12.4272 22.9254 12.982ZM28.6869 30.9484C28.6869 31.5034 29.1196 31.9532 29.6536 31.9532C30.1873 31.9532 30.6202 31.5034 30.6202 30.9484C30.6202 30.3936 30.1873 29.9437 29.6536 29.9437C29.1196 29.9437 28.6869 30.3936 28.6869 30.9484ZM28.6869 6.9933C28.6869 7.54814 29.1196 7.99805 29.6536 7.99805C30.1873 7.99805 30.6202 7.54814 30.6202 6.9933C30.6202 6.43829 30.1873 5.98855 29.6536 5.98855C29.1196 5.98855 28.6869 6.43829 28.6869 6.9933ZM22.9254 36.9376C22.9254 37.4925 23.3581 37.9424 23.892 37.9424C24.4259 37.9424 24.8586 37.4925 24.8586 36.9376C24.8586 36.3826 24.4259 35.9329 23.892 35.9329C23.3581 35.9329 22.9254 36.3826 22.9254 36.9376ZM17.1638 36.9376C17.1638 37.4925 17.5967 37.9424 18.1306 37.9424C18.6644 37.9424 19.0972 37.4925 19.0972 36.9376C19.0972 36.3826 18.6644 35.9329 18.1306 35.9329C17.5965 35.9329 17.1638 36.3826 17.1638 36.9376ZM28.6869 36.9376C28.6869 37.4925 29.1196 37.9424 29.6536 37.9424C30.1873 37.9424 30.6202 37.4925 30.6202 36.9376C30.6202 36.3826 30.1873 35.9329 29.6536 35.9329C29.1196 35.9329 28.6869 36.3826 28.6869 36.9376ZM17.1638 1.00475C17.1638 1.55975 17.5967 2.0095 18.1306 2.0095C18.6644 2.0095 19.0972 1.55959 19.0972 1.00475C19.0972 0.449747 18.6644 0 18.1306 0C17.5965 0 17.1638 0.449907 17.1638 1.00475ZM22.9254 1.00475C22.9254 1.55975 23.3581 2.0095 23.892 2.0095C24.4259 2.0095 24.8586 1.55959 24.8586 1.00475C24.8586 0.449747 24.4259 0 23.892 0C23.3581 0 22.9254 0.449907 22.9254 1.00475ZM28.6869 1.00475C28.6869 1.55975 29.1196 2.0095 29.6536 2.0095C30.1873 2.0095 30.6202 1.55959 30.6202 1.00475C30.6202 0.449747 30.1873 0 29.6536 0C29.1196 0 28.6869 0.449907 28.6869 1.00475ZM17.1638 6.99362C17.1638 7.54846 17.5967 7.99837 18.1306 7.99837C18.6644 7.99837 19.0972 7.54846 19.0972 6.99362C19.0972 6.43861 18.6644 5.98887 18.1306 5.98887C17.5965 5.98887 17.1638 6.43861 17.1638 6.99362ZM22.9254 6.99362C22.9254 7.54846 23.3581 7.99837 23.892 7.99837C24.4259 7.99837 24.8586 7.54846 24.8586 6.99362C24.8586 6.43861 24.4259 5.98887 23.892 5.98887C23.3581 5.98887 22.9254 6.43861 22.9254 6.99362ZM5.76141 66.9949C5.76141 67.5498 6.19424 67.9997 6.72818 67.9997C7.26196 67.9997 7.69479 67.5498 7.69479 66.9949C7.69479 66.4399 7.26196 65.9902 6.72818 65.9902C6.19424 65.9902 5.76141 66.4399 5.76141 66.9949ZM5.76156 61.0061C5.76156 61.5611 6.19439 62.0108 6.72833 62.0108C7.26212 62.0108 7.69495 61.5611 7.69495 61.0061C7.69495 60.4512 7.26212 60.0013 6.72833 60.0013C6.19439 60.0013 5.76156 60.4512 5.76156 61.0061ZM11.5233 61.0061C11.5233 61.5611 11.9561 62.0108 12.4899 62.0108C13.0238 62.0108 13.4567 61.5611 13.4567 61.0061C13.4567 60.4512 13.0238 60.0013 12.4899 60.0013C11.9561 60.0013 11.5233 60.4512 11.5233 61.0061ZM0 66.9951C0 67.5499 0.432831 67.9998 0.966615 67.9998C1.50055 67.9998 1.93323 67.5499 1.93323 66.9951C1.93323 66.4401 1.50055 65.9903 0.966615 65.9903C0.432831 65.9903 0 66.4401 0 66.9951ZM11.5231 66.9951C11.5231 67.5499 11.9558 67.9998 12.4896 67.9998C13.0235 67.9998 13.4564 67.5499 13.4564 66.9951C13.4564 66.4401 13.0235 65.9903 12.4896 65.9903C11.9558 65.9903 11.5231 66.4401 11.5231 66.9951ZM0 55.0172C0 55.5722 0.432831 56.0221 0.966615 56.0221C1.50055 56.0221 1.93323 55.5722 1.93323 55.0174C1.93323 54.4624 1.50055 54.0124 0.966615 54.0124C0.432831 54.0124 0 54.4622 0 55.0172ZM0 61.0062C0 61.5612 0.432831 62.011 0.966615 62.011C1.50055 62.011 1.93323 61.5612 1.93323 61.0062C1.93323 60.4514 1.50055 60.0015 0.966615 60.0015C0.432831 60.0015 0 60.4514 0 61.0062ZM11.5231 55.0175C11.5231 55.5724 11.9558 56.0223 12.4896 56.0223C13.0235 56.0223 13.4564 55.5724 13.4564 55.0175C13.4564 54.4625 13.0235 54.0126 12.4896 54.0126C11.9558 54.0126 11.5231 54.4625 11.5231 55.0175ZM5.76141 55.0175C5.76141 55.5724 6.19408 56.0223 6.72802 56.0223C7.26181 56.0223 7.69464 55.5724 7.69464 55.0175C7.69464 54.4625 7.26181 54.0126 6.72802 54.0126C6.19408 54.0126 5.76141 54.4625 5.76141 55.0175ZM11.5228 49.0286C11.5228 49.5835 11.9556 50.0334 12.4894 50.0334C13.0234 50.0334 13.4562 49.5835 13.4562 49.0286C13.4562 48.4736 13.0234 48.0239 12.4894 48.0239C11.9556 48.0239 11.5228 48.4736 11.5228 49.0286ZM0 43.0396C0 43.5946 0.432831 44.0444 0.966615 44.0444C1.50055 44.0444 1.93323 43.5946 1.93323 43.0396C1.93323 42.4848 1.50055 42.0349 0.966615 42.0349C0.432831 42.0349 0 42.4848 0 43.0396ZM5.76156 43.0396C5.76156 43.5946 6.19424 44.0444 6.72818 44.0444C7.26196 44.0444 7.69479 43.5946 7.69479 43.0396C7.69479 42.4848 7.26196 42.0349 6.72818 42.0349C6.19424 42.0349 5.76156 42.4848 5.76156 43.0396ZM11.523 43.0396C11.523 43.5946 11.9558 44.0444 12.4896 44.0444C13.0235 44.0444 13.4564 43.5946 13.4564 43.0396C13.4564 42.4848 13.0235 42.0349 12.4896 42.0349C11.9558 42.0349 11.523 42.4848 11.523 43.0396ZM0 49.0285C0 49.5833 0.432831 50.0332 0.966615 50.0332C1.50055 50.0332 1.93323 49.5833 1.93323 49.0285C1.93323 48.4735 1.50055 48.0237 0.966615 48.0237C0.432831 48.0237 0 48.4735 0 49.0285ZM5.76156 49.0285C5.76156 49.5833 6.19424 50.0332 6.72818 50.0332C7.26196 50.0332 7.69479 49.5833 7.69479 49.0285C7.69479 48.4735 7.26196 48.0237 6.72818 48.0237C6.19424 48.0237 5.76156 48.4735 5.76156 49.0285ZM22.9254 66.9949C22.9254 67.5498 23.3581 67.9997 23.892 67.9997C24.4259 67.9997 24.8586 67.5498 24.8586 66.9949C24.8586 66.4399 24.4259 65.9902 23.892 65.9902C23.3581 65.9902 22.9254 66.4399 22.9254 66.9949ZM22.9254 61.0061C22.9254 61.5611 23.3581 62.0108 23.892 62.0108C24.4259 62.0108 24.8586 61.5611 24.8586 61.0061C24.8586 60.4512 24.4259 60.0013 23.892 60.0013C23.3581 60.0013 22.9254 60.4512 22.9254 61.0061ZM28.6869 61.0061C28.6869 61.5611 29.1196 62.0108 29.6536 62.0108C30.1873 62.0108 30.6202 61.5611 30.6202 61.0061C30.6202 60.4512 30.1873 60.0013 29.6536 60.0013C29.1196 60.0013 28.6869 60.4512 28.6869 61.0061ZM17.1638 66.9949C17.1638 67.5498 17.5967 67.9997 18.1306 67.9997C18.6644 67.9997 19.0972 67.5498 19.0972 66.9949C19.0972 66.4399 18.6644 65.9902 18.1306 65.9902C17.5965 65.9902 17.1638 66.4399 17.1638 66.9949ZM28.6869 66.9949C28.6869 67.5498 29.1196 67.9997 29.6536 67.9997C30.1873 67.9997 30.6202 67.5498 30.6202 66.9949C30.6202 66.4399 30.1873 65.9902 29.6536 65.9902C29.1196 65.9902 28.6869 66.4399 28.6869 66.9949ZM17.1638 55.0172C17.1638 55.5722 17.5967 56.0221 18.1306 56.0221C18.6644 56.0221 19.0972 55.5722 19.0972 55.0174C19.0972 54.4624 18.6644 54.0124 18.1306 54.0124C17.5965 54.0124 17.1638 54.4622 17.1638 55.0172ZM17.1638 61.0062C17.1638 61.5612 17.5967 62.011 18.1306 62.011C18.6644 62.011 19.0972 61.5612 19.0972 61.0062C19.0972 60.4514 18.6644 60.0015 18.1306 60.0015C17.5965 60.0015 17.1638 60.4514 17.1638 61.0062ZM28.6869 55.0175C28.6869 55.5724 29.1196 56.0223 29.6536 56.0223C30.1873 56.0223 30.6202 55.5724 30.6202 55.0175C30.6202 54.4625 30.1873 54.0126 29.6536 54.0126C29.1196 54.0126 28.6869 54.4625 28.6869 55.0175ZM22.9254 55.0175C22.9254 55.5724 23.3581 56.0223 23.892 56.0223C24.4259 56.0223 24.8586 55.5724 24.8586 55.0175C24.8586 54.4625 24.4259 54.0126 23.892 54.0126C23.3581 54.0126 22.9254 54.4625 22.9254 55.0175ZM28.6869 49.0286C28.6869 49.5835 29.1196 50.0334 29.6536 50.0334C30.1873 50.0334 30.6202 49.5835 30.6202 49.0286C30.6202 48.4736 30.1873 48.0239 29.6536 48.0239C29.1196 48.0239 28.6869 48.4736 28.6869 49.0286ZM17.1638 43.0398C17.1638 43.5948 17.5967 44.0445 18.1306 44.0445C18.6644 44.0445 19.0972 43.5948 19.0972 43.0398C19.0972 42.4849 18.6644 42.035 18.1306 42.035C17.5965 42.035 17.1638 42.4849 17.1638 43.0398ZM22.9254 43.0398C22.9254 43.5948 23.3581 44.0445 23.892 44.0445C24.4259 44.0445 24.8586 43.5948 24.8586 43.0398C24.8586 42.4849 24.4259 42.035 23.892 42.035C23.3581 42.035 22.9254 42.4849 22.9254 43.0398ZM28.6869 43.0398C28.6869 43.5948 29.1196 44.0445 29.6536 44.0445C30.1873 44.0445 30.6202 43.5948 30.6202 43.0398C30.6202 42.4849 30.1873 42.035 29.6536 42.035C29.1196 42.035 28.6869 42.4849 28.6869 43.0398ZM17.1638 49.0286C17.1638 49.5835 17.5967 50.0334 18.1306 50.0334C18.6644 50.0334 19.0972 49.5835 19.0972 49.0286C19.0972 48.4736 18.6644 48.0239 18.1306 48.0239C17.5965 48.0239 17.1638 48.4736 17.1638 49.0286ZM22.9254 49.0286C22.9254 49.5835 23.3581 50.0334 23.892 50.0334C24.4259 50.0334 24.8586 49.5835 24.8586 49.0286C24.8586 48.4736 24.4259 48.0239 23.892 48.0239C23.3581 48.0239 22.9254 48.4736 22.9254 49.0286Z" fill="#707070"/>
</svg>
