<svg width="43" height="80" viewBox="0 0 43 80" fill="none" xmlns="http://www.w3.org/2000/svg">
<path d="M7.97755 33.7693C7.97755 34.5204 8.57664 35.1289 9.31594 35.1289C10.055 35.1289 10.6543 34.5202 10.6543 33.7695C10.6543 33.0186 10.055 32.4099 9.31594 32.4099C8.57664 32.4099 7.97755 33.0184 7.97755 33.7693ZM7.97755 25.6671C7.97755 26.418 8.57664 27.0265 9.31594 27.0265C10.055 27.0265 10.6543 26.418 10.6543 25.6671C10.6543 24.9165 10.055 24.3078 9.31594 24.3078C8.57664 24.3078 7.97755 24.9165 7.97755 25.6671ZM7.97755 41.8723C7.97755 42.623 8.57664 43.2314 9.31594 43.2314C10.055 43.2314 10.6543 42.623 10.6543 41.8721C10.6543 41.1214 10.055 40.5127 9.31594 40.5127C8.57664 40.5127 7.97755 41.1216 7.97755 41.8723ZM15.9549 25.6669C15.9549 26.4178 16.5542 27.0263 17.2933 27.0263C18.0326 27.0263 18.6319 26.4178 18.6319 25.6669C18.6319 24.9162 18.0326 24.3075 17.2933 24.3075C16.5542 24.3075 15.9549 24.9162 15.9549 25.6669ZM0 33.7693C0 34.5199 0.599305 35.1286 1.33839 35.1286C2.07769 35.1286 2.67678 34.5199 2.67678 33.7693C2.67678 33.0184 2.07769 32.4097 1.33839 32.4097C0.599305 32.4097 0 33.0184 0 33.7693ZM0 41.8716C0 42.6225 0.599305 43.231 1.33839 43.231C2.07769 43.231 2.67678 42.6225 2.67678 41.8716C2.67678 41.121 2.07769 40.5123 1.33839 40.5123C0.599305 40.5123 0 41.121 0 41.8716ZM15.9551 33.7693C15.9551 34.5199 16.5542 35.1286 17.2933 35.1286C18.0326 35.1286 18.6319 34.5199 18.6319 33.7693C18.6319 33.0184 18.0326 32.4097 17.2933 32.4097C16.5542 32.4097 15.9551 33.0184 15.9551 33.7693ZM0 17.5641C0 18.315 0.599305 18.9237 1.33839 18.9237C2.07769 18.9237 2.67678 18.315 2.67678 17.5641C2.67678 16.8134 2.07769 16.2047 1.33839 16.2047C0.599305 16.2052 0 16.8134 0 17.5641ZM0 25.6669C0 26.4178 0.599305 27.0263 1.33839 27.0263C2.07769 27.0263 2.67678 26.4178 2.67678 25.6669C2.67678 24.9162 2.07769 24.3075 1.33839 24.3075C0.599305 24.3075 0 24.9162 0 25.6669ZM15.9551 17.5641C15.9551 18.315 16.5542 18.9237 17.2933 18.9237C18.0326 18.9237 18.6319 18.315 18.6319 17.5641C18.6319 16.8134 18.0326 16.2047 17.2933 16.2047C16.5542 16.2047 15.9551 16.8134 15.9551 17.5641ZM7.97733 17.5641C7.97733 18.315 8.57643 18.9237 9.31572 18.9237C10.0548 18.9237 10.6541 18.315 10.6541 17.5641C10.6541 16.8134 10.0548 16.2047 9.31572 16.2047C8.57643 16.2047 7.97733 16.8134 7.97733 17.5641ZM15.9547 41.8716C15.9547 42.6225 16.554 43.231 17.2931 43.231C18.0324 43.231 18.6317 42.6225 18.6317 41.8716C18.6317 41.121 18.0324 40.5123 17.2931 40.5123C16.554 40.5123 15.9547 41.121 15.9547 41.8716ZM15.9547 9.46174C15.9547 10.2124 16.554 10.8211 17.2931 10.8211C18.0324 10.8211 18.6317 10.2124 18.6317 9.46174C18.6317 8.71085 18.0324 8.10237 17.2931 8.10237C16.554 8.10237 15.9547 8.71085 15.9547 9.46174ZM7.97755 49.9744C7.97755 50.7251 8.57664 51.3338 9.31594 51.3338C10.055 51.3338 10.6543 50.7251 10.6543 49.9744C10.6543 49.2236 10.055 48.6151 9.31594 48.6151C8.57664 48.6151 7.97755 49.2236 7.97755 49.9744ZM0 49.9744C0 50.7251 0.599305 51.3338 1.33839 51.3338C2.07769 51.3338 2.67678 50.7251 2.67678 49.9744C2.67678 49.2236 2.07769 48.6151 1.33839 48.6151C0.599305 48.6151 0 49.2236 0 49.9744ZM15.9551 49.9744C15.9551 50.7251 16.5542 51.3338 17.2933 51.3338C18.0326 51.3338 18.6319 50.7251 18.6319 49.9744C18.6319 49.2236 18.0326 48.6151 17.2933 48.6151C16.5542 48.6151 15.9551 49.2236 15.9551 49.9744ZM0 1.35937C0 2.11025 0.599305 2.71873 1.33839 2.71873C2.07769 2.71873 2.67678 2.11004 2.67678 1.35937C2.67678 0.608698 2.07769 0 1.33839 0C0.599305 0 0 0.608698 0 1.35937ZM7.97755 1.35937C7.97755 2.11025 8.57664 2.71873 9.31594 2.71873C10.055 2.71873 10.6543 2.11004 10.6543 1.35937C10.6543 0.608698 10.055 0 9.31594 0C8.57664 0 7.97755 0.608698 7.97755 1.35937ZM15.9549 1.35937C15.9549 2.11025 16.5542 2.71873 17.2933 2.71873C18.0326 2.71873 18.6319 2.11004 18.6319 1.35937C18.6319 0.608698 18.0326 0 17.2931 0C16.554 0 15.9549 0.608698 15.9549 1.35937ZM0 9.46195C0 10.2126 0.599305 10.8213 1.33839 10.8213C2.07769 10.8213 2.67678 10.2126 2.67678 9.46195C2.67678 8.71107 2.07769 8.10259 1.33839 8.10259C0.599305 8.10259 0 8.71107 0 9.46195ZM7.97755 9.46195C7.97755 10.2126 8.57664 10.8213 9.31594 10.8213C10.055 10.8213 10.6543 10.2126 10.6543 9.46195C10.6543 8.71107 10.055 8.10259 9.31594 8.10259C8.57664 8.10259 7.97755 8.71107 7.97755 9.46195ZM31.7428 33.7693C31.7428 34.5199 32.3419 35.1286 33.0812 35.1286C33.8205 35.1286 34.4196 34.5199 34.4196 33.7693C34.4196 33.0184 33.8205 32.4097 33.0812 32.4097C32.3419 32.4097 31.7428 33.0184 31.7428 33.7693ZM31.7428 25.6667C31.7428 26.4176 32.3419 27.0261 33.0812 27.0261C33.8205 27.0261 34.4196 26.4176 34.4196 25.6667C34.4196 24.916 33.8205 24.3073 33.0812 24.3073C32.3419 24.3073 31.7428 24.916 31.7428 25.6667ZM31.7428 41.8719C31.7428 42.6225 32.3419 43.231 33.0812 43.231C33.8205 43.231 34.4196 42.6225 34.4196 41.8716C34.4196 41.121 33.8205 40.5123 33.0812 40.5123C32.3419 40.5123 31.7428 41.1212 31.7428 41.8719ZM39.7204 25.6665C39.7204 26.4174 40.3195 27.0258 41.0588 27.0258C41.7979 27.0258 42.3972 26.4174 42.3972 25.6665C42.3972 24.9158 41.7979 24.3071 41.0588 24.3071C40.3195 24.3071 39.7204 24.9158 39.7204 25.6665ZM23.7653 33.7691C23.7653 34.5197 24.3646 35.1284 25.1039 35.1284C25.843 35.1284 26.4423 34.5197 26.4423 33.7691C26.4423 33.0182 25.843 32.4095 25.1039 32.4095C24.3644 32.4095 23.7653 33.0182 23.7653 33.7691ZM23.7653 41.8714C23.7653 42.6223 24.3646 43.2308 25.1039 43.2308C25.843 43.2308 26.4423 42.6223 26.4423 41.8714C26.4423 41.1208 25.843 40.5121 25.1039 40.5121C24.3644 40.5121 23.7653 41.1208 23.7653 41.8714ZM39.7204 33.7691C39.7204 34.5197 40.3195 35.1284 41.0588 35.1284C41.7979 35.1284 42.3972 34.5197 42.3972 33.7691C42.3972 33.0182 41.7979 32.4095 41.0588 32.4095C40.3195 32.4095 39.7204 33.0182 39.7204 33.7691ZM23.7653 17.5639C23.7653 18.3148 24.3646 18.9235 25.1039 18.9235C25.843 18.9235 26.4423 18.3148 26.4423 17.5639C26.4423 16.8132 25.843 16.2045 25.1039 16.2045C24.3644 16.2045 23.7653 16.8132 23.7653 17.5639ZM23.7653 25.6665C23.7653 26.4174 24.3646 27.0258 25.1039 27.0258C25.843 27.0258 26.4423 26.4174 26.4423 25.6665C26.4423 24.9158 25.843 24.3071 25.1039 24.3071C24.3644 24.3071 23.7653 24.9158 23.7653 25.6665ZM39.7204 17.5639C39.7204 18.3148 40.3195 18.9235 41.0588 18.9235C41.7979 18.9235 42.3972 18.3148 42.3972 17.5639C42.3972 16.8132 41.7979 16.2045 41.0588 16.2045C40.3195 16.2045 39.7204 16.8132 39.7204 17.5639ZM31.7428 17.5639C31.7428 18.3148 32.3419 18.9235 33.0812 18.9235C33.8205 18.9235 34.4196 18.3148 34.4196 17.5639C34.4196 16.8132 33.8205 16.2045 33.0812 16.2045C32.3419 16.2045 31.7428 16.8132 31.7428 17.5639ZM39.7204 41.8714C39.7204 42.6223 40.3195 43.2308 41.0588 43.2308C41.7979 43.2308 42.3972 42.6223 42.3972 41.8714C42.3972 41.1208 41.7979 40.5121 41.0588 40.5121C40.3195 40.5121 39.7204 41.1208 39.7204 41.8714ZM39.7204 9.46152C39.7204 10.2122 40.3195 10.8209 41.0588 10.8209C41.7979 10.8209 42.3972 10.2122 42.3972 9.46152C42.3972 8.71063 41.7979 8.10215 41.0588 8.10215C40.3195 8.10215 39.7204 8.71063 39.7204 9.46152ZM31.7428 49.9744C31.7428 50.7251 32.3419 51.3338 33.0812 51.3338C33.8205 51.3338 34.4196 50.7251 34.4196 49.9744C34.4196 49.2236 33.8205 48.6151 33.0812 48.6151C32.3419 48.6151 31.7428 49.2236 31.7428 49.9744ZM23.7653 49.9744C23.7653 50.7251 24.3646 51.3338 25.1039 51.3338C25.843 51.3338 26.4423 50.7251 26.4423 49.9744C26.4423 49.2236 25.843 48.6151 25.1039 48.6151C24.3644 48.6151 23.7653 49.2236 23.7653 49.9744ZM39.7204 49.9744C39.7204 50.7251 40.3195 51.3338 41.0588 51.3338C41.7979 51.3338 42.3972 50.7251 42.3972 49.9744C42.3972 49.2236 41.7979 48.6151 41.0588 48.6151C40.3195 48.6151 39.7204 49.2236 39.7204 49.9744ZM23.7653 1.35937C23.7653 2.11025 24.3646 2.71873 25.1039 2.71873C25.843 2.71873 26.4423 2.11004 26.4423 1.35937C26.4423 0.608481 25.843 0 25.1039 0C24.3644 0 23.7653 0.608698 23.7653 1.35937ZM31.7428 1.35937C31.7428 2.11025 32.3419 2.71873 33.0812 2.71873C33.8205 2.71873 34.4196 2.11004 34.4196 1.35937C34.4196 0.608481 33.8205 0 33.0812 0C32.3419 0 31.7428 0.608698 31.7428 1.35937ZM39.7204 1.35937C39.7204 2.11025 40.3195 2.71873 41.0588 2.71873C41.7979 2.71873 42.3972 2.11004 42.3972 1.35937C42.3972 0.608481 41.7979 0 41.0588 0C40.3195 0 39.7204 0.608698 39.7204 1.35937ZM23.7653 9.46195C23.7653 10.2126 24.3646 10.8213 25.1039 10.8213C25.843 10.8213 26.4423 10.2126 26.4423 9.46195C26.4423 8.71107 25.843 8.10259 25.1039 8.10259C24.3644 8.10259 23.7653 8.71107 23.7653 9.46195ZM31.7428 9.46195C31.7428 10.2126 32.3419 10.8213 33.0812 10.8213C33.8205 10.8213 34.4196 10.2126 34.4196 9.46195C34.4196 8.71107 33.8205 8.10259 33.0812 8.10259C32.3419 8.10259 31.7428 8.71107 31.7428 9.46195ZM7.97733 90.6402C7.97733 91.3909 8.57664 91.9996 9.31594 91.9996C10.055 91.9996 10.6543 91.3909 10.6543 90.6402C10.6543 89.8893 10.055 89.2808 9.31594 89.2808C8.57664 89.2808 7.97733 89.8893 7.97733 90.6402ZM7.97755 82.5376C7.97755 83.2885 8.57685 83.897 9.31615 83.897C10.0552 83.897 10.6545 83.2885 10.6545 82.5376C10.6545 81.7869 10.0552 81.1782 9.31615 81.1782C8.57685 81.1782 7.97755 81.7869 7.97755 82.5376ZM15.9553 82.5376C15.9553 83.2885 16.5546 83.897 17.2937 83.897C18.033 83.897 18.6323 83.2885 18.6323 82.5376C18.6323 81.7869 18.033 81.1782 17.2937 81.1782C16.5546 81.1782 15.9553 81.7869 15.9553 82.5376ZM0 90.6404C0 91.3911 0.599305 91.9998 1.33839 91.9998C2.07769 91.9998 2.67678 91.3911 2.67678 90.6404C2.67678 89.8895 2.07769 89.2811 1.33839 89.2811C0.599305 89.2811 0 89.8895 0 90.6404ZM15.9551 90.6404C15.9551 91.3911 16.5542 91.9998 17.2933 91.9998C18.0326 91.9998 18.6319 91.3911 18.6319 90.6404C18.6319 89.8895 18.0326 89.2811 17.2933 89.2811C16.5542 89.2811 15.9551 89.8895 15.9551 90.6404ZM0 74.435C0 75.1859 0.599305 75.7946 1.33839 75.7946C2.07769 75.7946 2.67678 75.1859 2.67678 74.4352C2.67678 73.6844 2.07769 73.0757 1.33839 73.0757C0.599305 73.0757 0 73.6841 0 74.435ZM0 82.5378C0 83.2887 0.599305 83.8972 1.33839 83.8972C2.07769 83.8972 2.67678 83.2887 2.67678 82.5378C2.67678 81.7872 2.07769 81.1785 1.33839 81.1785C0.599305 81.1785 0 81.7872 0 82.5378ZM15.9551 74.4355C15.9551 75.1861 16.5542 75.7948 17.2933 75.7948C18.0326 75.7948 18.6319 75.1861 18.6319 74.4355C18.6319 73.6846 18.0326 73.0759 17.2933 73.0759C16.5542 73.0759 15.9551 73.6846 15.9551 74.4355ZM7.97733 74.4355C7.97733 75.1861 8.57643 75.7948 9.31572 75.7948C10.0548 75.7948 10.6541 75.1861 10.6541 74.4355C10.6541 73.6846 10.0548 73.0759 9.31572 73.0759C8.57643 73.0759 7.97733 73.6846 7.97733 74.4355ZM15.9547 66.3329C15.9547 67.0835 16.554 67.6922 17.2931 67.6922C18.0324 67.6922 18.6317 67.0835 18.6317 66.3329C18.6317 65.582 18.0324 64.9735 17.2931 64.9735C16.554 64.9735 15.9547 65.582 15.9547 66.3329ZM0 58.2301C0 58.981 0.599305 59.5894 1.33839 59.5894C2.07769 59.5894 2.67678 58.981 2.67678 58.2301C2.67678 57.4794 2.07769 56.8707 1.33839 56.8707C0.599305 56.8707 0 57.4794 0 58.2301ZM7.97755 58.2301C7.97755 58.981 8.57664 59.5894 9.31594 59.5894C10.055 59.5894 10.6543 58.981 10.6543 58.2301C10.6543 57.4794 10.055 56.8707 9.31594 56.8707C8.57664 56.8707 7.97755 57.4794 7.97755 58.2301ZM15.9549 58.2301C15.9549 58.981 16.5542 59.5894 17.2933 59.5894C18.0326 59.5894 18.6319 58.981 18.6319 58.2301C18.6319 57.4794 18.0326 56.8707 17.2933 56.8707C16.5542 56.8707 15.9549 57.4794 15.9549 58.2301ZM0 66.3327C0 67.0833 0.599305 67.692 1.33839 67.692C2.07769 67.692 2.67678 67.0833 2.67678 66.3327C2.67678 65.5818 2.07769 64.9733 1.33839 64.9733C0.599305 64.9733 0 65.5818 0 66.3327ZM7.97755 66.3327C7.97755 67.0833 8.57664 67.692 9.31594 67.692C10.055 67.692 10.6543 67.0833 10.6543 66.3327C10.6543 65.5818 10.055 64.9733 9.31594 64.9733C8.57664 64.9733 7.97755 65.5818 7.97755 66.3327ZM31.7428 90.6402C31.7428 91.3909 32.3419 91.9996 33.0812 91.9996C33.8205 91.9996 34.4196 91.3909 34.4196 90.6402C34.4196 89.8893 33.8205 89.2808 33.0812 89.2808C32.3419 89.2808 31.7428 89.8893 31.7428 90.6402ZM31.7428 82.5376C31.7428 83.2885 32.3419 83.897 33.0812 83.897C33.8205 83.897 34.4196 83.2885 34.4196 82.5376C34.4196 81.7869 33.8205 81.1782 33.0812 81.1782C32.3419 81.1782 31.7428 81.7869 31.7428 82.5376ZM39.7204 82.5376C39.7204 83.2885 40.3195 83.897 41.0588 83.897C41.7979 83.897 42.3972 83.2885 42.3972 82.5376C42.3972 81.7869 41.7979 81.1782 41.0588 81.1782C40.3195 81.1782 39.7204 81.7869 39.7204 82.5376ZM23.7653 90.6402C23.7653 91.3909 24.3646 91.9996 25.1039 91.9996C25.843 91.9996 26.4423 91.3909 26.4423 90.6402C26.4423 89.8893 25.843 89.2808 25.1039 89.2808C24.3644 89.2808 23.7653 89.8893 23.7653 90.6402ZM39.7204 90.6402C39.7204 91.3909 40.3195 91.9996 41.0588 91.9996C41.7979 91.9996 42.3972 91.3909 42.3972 90.6402C42.3972 89.8893 41.7979 89.2808 41.0588 89.2808C40.3195 89.2808 39.7204 89.8893 39.7204 90.6402ZM23.7653 74.435C23.7653 75.1859 24.3646 75.7946 25.1039 75.7946C25.843 75.7946 26.4423 75.1859 26.4423 74.4352C26.4423 73.6844 25.843 73.0757 25.1039 73.0757C24.3644 73.0757 23.7653 73.6841 23.7653 74.435ZM23.7653 82.5378C23.7653 83.2887 24.3646 83.8972 25.1039 83.8972C25.843 83.8972 26.4423 83.2887 26.4423 82.5378C26.4423 81.7872 25.843 81.1785 25.1039 81.1785C24.3644 81.1785 23.7653 81.7872 23.7653 82.5378ZM39.7204 74.4355C39.7204 75.1861 40.3195 75.7948 41.0588 75.7948C41.7979 75.7948 42.3972 75.1861 42.3972 74.4355C42.3972 73.6846 41.7979 73.0759 41.0588 73.0759C40.3195 73.0759 39.7204 73.6846 39.7204 74.4355ZM31.7428 74.4355C31.7428 75.1861 32.3419 75.7948 33.0812 75.7948C33.8205 75.7948 34.4196 75.1861 34.4196 74.4355C34.4196 73.6846 33.8205 73.0759 33.0812 73.0759C32.3419 73.0759 31.7428 73.6846 31.7428 74.4355ZM39.7204 66.3329C39.7204 67.0835 40.3195 67.6922 41.0588 67.6922C41.7979 67.6922 42.3972 67.0835 42.3972 66.3329C42.3972 65.582 41.7979 64.9735 41.0588 64.9735C40.3195 64.9735 39.7204 65.582 39.7204 66.3329ZM23.7653 58.2303C23.7653 58.9812 24.3646 59.5897 25.1039 59.5897C25.843 59.5897 26.4423 58.9812 26.4423 58.2303C26.4423 57.4796 25.843 56.8709 25.1039 56.8709C24.3644 56.8709 23.7653 57.4796 23.7653 58.2303ZM31.7428 58.2303C31.7428 58.9812 32.3419 59.5897 33.0812 59.5897C33.8205 59.5897 34.4196 58.9812 34.4196 58.2303C34.4196 57.4796 33.8205 56.8709 33.0812 56.8709C32.3419 56.8709 31.7428 57.4796 31.7428 58.2303ZM39.7204 58.2303C39.7204 58.9812 40.3195 59.5897 41.0588 59.5897C41.7979 59.5897 42.3972 58.9812 42.3972 58.2303C42.3972 57.4796 41.7979 56.8709 41.0588 56.8709C40.3195 56.8709 39.7204 57.4796 39.7204 58.2303ZM23.7653 66.3329C23.7653 67.0835 24.3646 67.6922 25.1039 67.6922C25.843 67.6922 26.4423 67.0835 26.4423 66.3329C26.4423 65.582 25.843 64.9735 25.1039 64.9735C24.3644 64.9735 23.7653 65.582 23.7653 66.3329ZM31.7428 66.3329C31.7428 67.0835 32.3419 67.6922 33.0812 67.6922C33.8205 67.6922 34.4196 67.0835 34.4196 66.3329C34.4196 65.582 33.8205 64.9735 33.0812 64.9735C32.3419 64.9735 31.7428 65.582 31.7428 66.3329Z" fill="#707070"/>
</svg>
