<svg width="29" height="97" viewBox="0 0 29 97" fill="none" xmlns="http://www.w3.org/2000/svg">
<path d="M8.6552 35.6046C8.6552 36.396 9.30541 37.0378 10.1075 37.0378C10.9094 37.0378 11.5596 36.396 11.5596 35.6046C11.5596 34.8129 10.9094 34.1711 10.1075 34.1711C9.30518 34.1711 8.6552 34.8129 8.6552 35.6046ZM8.6552 27.0616C8.6552 27.8533 9.30541 28.4949 10.1075 28.4949C10.9094 28.4949 11.5596 27.8533 11.5596 27.0616C11.5596 26.2702 10.9094 25.6284 10.1075 25.6284C9.30518 25.6284 8.6552 26.2702 8.6552 27.0616ZM8.6552 44.1475C8.6552 44.939 9.30541 45.5805 10.1075 45.5805C10.9094 45.5805 11.5596 44.939 11.5596 44.1473C11.5596 43.3558 10.9094 42.714 10.1075 42.714C9.30518 42.714 8.6552 43.356 8.6552 44.1475ZM17.3104 27.0614C17.3104 27.8531 17.9606 28.4946 18.7625 28.4946C19.5646 28.4946 20.2146 27.8531 20.2146 27.0614C20.2146 26.2699 19.5646 25.6281 18.7625 25.6281C17.9606 25.6281 17.3104 26.2699 17.3104 27.0614ZM0 35.6043C0 36.3958 0.650211 37.0376 1.45231 37.0376C2.25418 37.0376 2.90439 36.3958 2.90439 35.6043C2.90439 34.8126 2.25418 34.1709 1.45231 34.1709C0.650211 34.1709 0 34.8126 0 35.6043ZM0.000226413 44.147C0.000226413 44.9387 0.650437 45.5803 1.45254 45.5803C2.2544 45.5803 2.90462 44.9387 2.90462 44.147C2.90462 43.3556 2.2544 42.7138 1.45254 42.7138C0.650437 42.7138 0.000226413 43.3556 0.000226413 44.147ZM17.3109 35.6043C17.3109 36.3958 17.9611 37.0376 18.7629 37.0376C19.565 37.0376 20.215 36.3958 20.215 35.6043C20.215 34.8126 19.565 34.1709 18.7629 34.1709C17.9611 34.1709 17.3109 34.8126 17.3109 35.6043ZM0.00046013 18.5184C0.00046013 19.3101 0.650671 19.9519 1.45277 19.9519C2.25464 19.9519 2.90485 19.3101 2.90485 18.5184C2.90485 17.727 2.25464 17.0852 1.45277 17.0852C0.650671 17.0852 0.00046013 17.727 0.00046013 18.5184ZM0.000693847 27.0614C0.000693847 27.8531 0.650905 28.4946 1.453 28.4946C2.25487 28.4946 2.90509 27.8531 2.90509 27.0614C2.90509 26.2699 2.25487 25.6281 1.453 25.6281C0.650905 25.6281 0.000693847 26.2699 0.000693847 27.0614ZM17.3113 18.5184C17.3113 19.3101 17.9615 19.9519 18.7634 19.9519C19.5655 19.9519 20.2155 19.3101 20.2155 18.5184C20.2155 17.727 19.5655 17.0852 18.7634 17.0852C17.9615 17.0852 17.3113 17.727 17.3113 18.5184ZM8.65613 18.5184C8.65613 19.3101 9.30635 19.9519 10.1084 19.9519C10.9103 19.9519 11.5605 19.3101 11.5605 18.5184C11.5605 17.727 10.9103 17.0852 10.1084 17.0852C9.30612 17.0852 8.65613 17.727 8.65613 18.5184ZM17.3113 44.147C17.3113 44.9387 17.9615 45.5803 18.7634 45.5803C19.5655 45.5803 20.2155 44.9387 20.2155 44.147C20.2155 43.3556 19.5655 42.7138 18.7634 42.7138C17.9615 42.7138 17.3113 43.3556 17.3113 44.147ZM17.3113 9.97573C17.3113 10.7672 17.9615 11.409 18.7634 11.409C19.5655 11.409 20.2155 10.7672 20.2155 9.97573C20.2155 9.18404 19.5655 8.54249 18.7634 8.54249C17.9615 8.54249 17.3113 9.18404 17.3113 9.97573ZM8.65497 52.6904C8.65497 53.4819 9.30519 54.1237 10.1073 54.1237C10.9092 54.1237 11.5594 53.4819 11.5594 52.6904C11.5594 51.8988 10.9092 51.2572 10.1073 51.2572C9.30496 51.2572 8.65497 51.8988 8.65497 52.6904ZM0 52.6904C0 53.4819 0.649977 54.1237 1.45208 54.1237C2.25394 54.1237 2.90416 53.4819 2.90416 52.6904C2.90416 51.8988 2.25394 51.2572 1.45208 51.2572C0.649977 51.2572 0 51.8988 0 52.6904ZM17.3102 52.6904C17.3102 53.4819 17.9604 54.1237 18.7623 54.1237C19.5644 54.1237 20.2143 53.4819 20.2143 52.6904C20.2143 51.8988 19.5644 51.2572 18.7623 51.2572C17.9604 51.2572 17.3102 51.8988 17.3102 52.6904ZM0 1.43325C0 2.22494 0.650211 2.86649 1.45231 2.86649C2.25418 2.86649 2.90439 2.22471 2.90439 1.43325C2.90439 0.64155 2.25418 0 1.45231 0C0.650211 0 0 0.641779 0 1.43325ZM8.65543 1.43325C8.65543 2.22494 9.30565 2.86649 10.1077 2.86649C10.9096 2.86649 11.5598 2.22471 11.5598 1.43325C11.5598 0.64155 10.9096 0 10.1077 0C9.30542 0 8.65543 0.641779 8.65543 1.43325ZM17.3106 1.43325C17.3106 2.22494 17.9608 2.86649 18.7627 2.86649C19.5648 2.86649 20.2148 2.22471 20.2148 1.43325C20.2148 0.64155 19.5648 0 18.7627 0C17.9608 0 17.3106 0.641779 17.3106 1.43325ZM0.000226413 9.97619C0.000226413 10.7677 0.650437 11.4094 1.45254 11.4094C2.2544 11.4094 2.90462 10.7677 2.90462 9.97619C2.90462 9.18449 2.2544 8.54294 1.45254 8.54294C0.650437 8.54294 0.000226413 9.18449 0.000226413 9.97619ZM8.65566 9.97619C8.65566 10.7677 9.30588 11.4094 10.108 11.4094C10.9098 11.4094 11.5601 10.7677 11.5601 9.97619C11.5601 9.18449 10.9098 8.54294 10.108 8.54294C9.30565 8.54294 8.65566 9.18449 8.65566 9.97619ZM25.7845 35.6046C25.7845 36.396 26.4347 37.0378 27.2366 37.0378C28.0387 37.0378 28.6887 36.396 28.6887 35.6046C28.6887 34.8129 28.0387 34.1711 27.2366 34.1711C26.4347 34.1711 25.7845 34.8129 25.7845 35.6046ZM25.7845 44.1473C25.7845 44.939 26.4347 45.5805 27.2366 45.5805C28.0387 45.5805 28.6887 44.939 28.6887 44.1473C28.6887 43.3558 28.0387 42.714 27.2366 42.714C26.4347 42.714 25.7845 43.3558 25.7845 44.1473ZM25.7843 18.5187C25.7843 19.3104 26.4345 19.9521 27.2363 19.9521C28.0384 19.9521 28.6884 19.3104 28.6884 18.5187C28.6884 17.7272 28.0384 17.0854 27.2363 17.0854C26.4345 17.0854 25.7843 17.7272 25.7843 18.5187ZM25.7843 27.0616C25.7843 27.8533 26.4345 28.4949 27.2363 28.4949C28.0384 28.4949 28.6884 27.8533 28.6884 27.0616C28.6884 26.2702 28.0384 25.6284 27.2363 25.6284C26.4345 25.6284 25.7843 26.2702 25.7843 27.0616ZM25.7843 52.6904C25.7843 53.4819 26.4345 54.1237 27.2363 54.1237C28.0384 54.1237 28.6884 53.4819 28.6884 52.6904C28.6884 51.8988 28.0384 51.2572 27.2363 51.2572C26.4345 51.2572 25.7843 51.8988 25.7843 52.6904ZM25.784 1.43325C25.784 2.22494 26.4343 2.86649 27.2361 2.86649C28.0382 2.86649 28.6882 2.22471 28.6882 1.43325C28.6882 0.64155 28.0382 0 27.2361 0C26.4343 0 25.784 0.641779 25.784 1.43325ZM25.7845 9.97619C25.7845 10.7677 26.4347 11.4094 27.2366 11.4094C28.0387 11.4094 28.6887 10.7677 28.6887 9.97619C28.6887 9.18449 28.0387 8.54294 27.2366 8.54294C26.4347 8.54294 25.7845 9.18449 25.7845 9.97619ZM8.6552 95.5665C8.6552 96.358 9.30541 96.9998 10.1075 96.9998C10.9094 96.9998 11.5596 96.358 11.5596 95.5665C11.5596 94.7748 10.9094 94.1333 10.1075 94.1333C9.30518 94.1333 8.6552 94.7748 8.6552 95.5665ZM8.6552 87.0236C8.6552 87.8153 9.30541 88.4568 10.1075 88.4568C10.9094 88.4568 11.5596 87.8153 11.5596 87.0236C11.5596 86.2321 10.9094 85.5903 10.1075 85.5903C9.30518 85.5903 8.6552 86.2321 8.6552 87.0236ZM17.3104 87.0236C17.3104 87.8153 17.9606 88.4568 18.7625 88.4568C19.5646 88.4568 20.2146 87.8153 20.2146 87.0236C20.2146 86.2321 19.5646 85.5903 18.7625 85.5903C17.9606 85.5903 17.3104 86.2321 17.3104 87.0236ZM0 95.5665C0 96.358 0.650211 96.9998 1.45231 96.9998C2.25418 96.9998 2.90439 96.358 2.90439 95.5665C2.90439 94.7748 2.25418 94.1333 1.45231 94.1333C0.650211 94.1333 0 94.7748 0 95.5665ZM17.3106 95.5665C17.3106 96.358 17.9608 96.9998 18.7627 96.9998C19.5648 96.9998 20.2148 96.358 20.2148 95.5665C20.2148 94.7748 19.5648 94.1333 18.7627 94.1333C17.9608 94.1333 17.3106 94.7748 17.3106 95.5665ZM0.000226413 78.4806C0.000226413 79.2723 0.650437 79.9141 1.45254 79.9141C2.2544 79.9141 2.90462 79.2723 2.90462 78.4809C2.90462 77.6892 2.2544 77.0474 1.45254 77.0474C0.650437 77.0474 0.000226413 77.6889 0.000226413 78.4806ZM0.00046013 87.0238C0.00046013 87.8155 0.650671 88.4571 1.45277 88.4571C2.25464 88.4571 2.90485 87.8155 2.90485 87.0238C2.90485 86.2323 2.25464 85.5906 1.45277 85.5906C0.650671 85.5906 0.00046013 86.2323 0.00046013 87.0238ZM17.3111 78.4811C17.3111 79.2726 17.9613 79.9143 18.7632 79.9143C19.5653 79.9143 20.2153 79.2726 20.2153 78.4811C20.2153 77.6894 19.5653 77.0476 18.7632 77.0476C17.9613 77.0476 17.3111 77.6894 17.3111 78.4811ZM8.6559 78.4811C8.6559 79.2726 9.30612 79.9143 10.1082 79.9143C10.9101 79.9143 11.5603 79.2726 11.5603 78.4811C11.5603 77.6894 10.9101 77.0476 10.1082 77.0476C9.30588 77.0476 8.6559 77.6894 8.6559 78.4811ZM17.3111 69.9381C17.3111 70.7296 17.9613 71.3714 18.7632 71.3714C19.5653 71.3714 20.2153 70.7296 20.2153 69.9381C20.2153 69.1465 19.5653 68.5049 18.7632 68.5049C17.9613 68.5049 17.3111 69.1465 17.3111 69.9381ZM0.000693847 61.3952C0.000693847 62.1869 0.650905 62.8284 1.453 62.8284C2.25487 62.8284 2.90509 62.1869 2.90509 61.3952C2.90509 60.6037 2.25487 59.962 1.453 59.962C0.650905 59.962 0.000693847 60.6037 0.000693847 61.3952ZM8.65613 61.3952C8.65613 62.1869 9.30635 62.8284 10.1084 62.8284C10.9103 62.8284 11.5605 62.1869 11.5605 61.3952C11.5605 60.6037 10.9103 59.962 10.1084 59.962C9.30612 59.962 8.65613 60.6037 8.65613 61.3952ZM17.3113 61.3952C17.3113 62.1869 17.9615 62.8284 18.7634 62.8284C19.5655 62.8284 20.2155 62.1869 20.2155 61.3952C20.2155 60.6037 19.5655 59.962 18.7634 59.962C17.9615 59.962 17.3113 60.6037 17.3113 61.3952ZM0.000927564 69.9381C0.000927564 70.7296 0.651138 71.3714 1.45324 71.3714C2.2551 71.3714 2.90531 70.7296 2.90531 69.9381C2.90531 69.1465 2.2551 68.5049 1.45324 68.5049C0.651138 68.5049 0.000927564 69.1465 0.000927564 69.9381ZM8.65636 69.9381C8.65636 70.7296 9.30658 71.3714 10.1087 71.3714C10.9105 71.3714 11.5608 70.7296 11.5608 69.9381C11.5608 69.1465 10.9105 68.5049 10.1087 68.5049C9.30634 68.5049 8.65636 69.1465 8.65636 69.9381ZM25.7845 95.5665C25.7845 96.358 26.4347 96.9998 27.2366 96.9998C28.0387 96.9998 28.6887 96.358 28.6887 95.5665C28.6887 94.7748 28.0387 94.1333 27.2366 94.1333C26.4347 94.1333 25.7845 94.7748 25.7845 95.5665ZM25.7843 78.4806C25.7843 79.2723 26.4345 79.9141 27.2363 79.9141C28.0384 79.9141 28.6884 79.2723 28.6884 78.4809C28.6884 77.6892 28.0384 77.0474 27.2363 77.0474C26.4345 77.0474 25.7843 77.6889 25.7843 78.4806ZM25.7843 87.0238C25.7843 87.8155 26.4345 88.4571 27.2363 88.4571C28.0384 88.4571 28.6884 87.8155 28.6884 87.0238C28.6884 86.2323 28.0384 85.5906 27.2363 85.5906C26.4345 85.5906 25.7843 86.2323 25.7843 87.0238ZM25.7845 61.3947C25.7845 62.1864 26.4347 62.828 27.2366 62.828C28.0387 62.828 28.6887 62.1864 28.6887 61.3947C28.6887 60.6033 28.0387 59.9615 27.2366 59.9615C26.4347 59.9615 25.7845 60.6033 25.7845 61.3947ZM25.7845 69.9377C25.7845 70.7292 26.4347 71.3709 27.2366 71.3709C28.0387 71.3709 28.6887 70.7292 28.6887 69.9377C28.6887 69.146 28.0387 68.5044 27.2366 68.5044C26.4347 68.5044 25.7845 69.146 25.7845 69.9377Z" fill="#707070"/>
</svg>
