<svg width="49" height="102" viewBox="0 0 49 102" fill="none" xmlns="http://www.w3.org/2000/svg">
<path d="M9.98964 37.4398C9.98964 38.2721 10.6689 38.947 11.5067 38.947C12.3444 38.947 13.0236 38.2721 13.0236 37.4398C13.0236 36.6073 12.3444 35.9325 11.5067 35.9325C10.6686 35.9325 9.98964 36.6073 9.98964 37.4398ZM9.98964 28.4565C9.98964 29.2891 10.6689 29.9637 11.5067 29.9637C12.3444 29.9637 13.0236 29.2891 13.0236 28.4565C13.0236 27.6243 12.3444 26.9494 11.5067 26.9494C10.6686 26.9494 9.98964 27.6243 9.98964 28.4565ZM9.98964 46.4231C9.98964 47.2554 10.6689 47.93 11.5067 47.93C12.3444 47.93 13.0236 47.2554 13.0236 46.4229C13.0236 45.5906 12.3444 44.9158 11.5067 44.9158C10.6686 44.9158 9.98964 45.5909 9.98964 46.4231ZM19.0309 28.4563C19.0309 29.2888 19.7101 29.9634 20.5477 29.9634C21.3856 29.9634 22.0646 29.2888 22.0646 28.4563C22.0646 27.624 21.3856 26.9492 20.5477 26.9492C19.7101 26.9492 19.0309 27.624 19.0309 28.4563ZM0.948425 37.4396C0.948425 38.2719 1.62764 38.9467 2.46551 38.9467C3.30314 38.9467 3.98235 38.2719 3.98235 37.4396C3.98235 36.6071 3.30314 35.9322 2.46551 35.9322C1.62764 35.9322 0.948425 36.6071 0.948425 37.4396ZM0.948662 46.4227C0.948662 47.2552 1.62787 47.9298 2.46574 47.9298C3.30337 47.9298 3.98259 47.2552 3.98259 46.4227C3.98259 45.5904 3.30337 44.9155 2.46574 44.9155C1.62787 44.9155 0.948662 45.5904 0.948662 46.4227ZM19.0314 37.4396C19.0314 38.2719 19.7106 38.9467 20.5482 38.9467C21.3861 38.9467 22.065 38.2719 22.065 37.4396C22.065 36.6071 21.3861 35.9322 20.5482 35.9322C19.7106 35.9322 19.0314 36.6071 19.0314 37.4396ZM0.948906 19.473C0.948906 20.3055 1.62812 20.9804 2.46599 20.9804C3.30362 20.9804 3.98283 20.3055 3.98283 19.473C3.98283 18.6407 3.30362 17.9659 2.46599 17.9659C1.62812 17.9659 0.948906 18.6407 0.948906 19.473ZM0.94915 28.4563C0.94915 29.2888 1.62836 29.9634 2.46623 29.9634C3.30386 29.9634 3.98308 29.2888 3.98308 28.4563C3.98308 27.624 3.30386 26.9492 2.46623 26.9492C1.62836 26.9492 0.94915 27.624 0.94915 28.4563ZM19.0318 19.473C19.0318 20.3055 19.711 20.9804 20.5487 20.9804C21.3865 20.9804 22.0655 20.3055 22.0655 19.473C22.0655 18.6407 21.3865 17.9659 20.5487 17.9659C19.711 17.9659 19.0318 18.6407 19.0318 19.473ZM9.99062 19.473C9.99062 20.3055 10.6698 20.9804 11.5077 20.9804C12.3453 20.9804 13.0245 20.3055 13.0245 19.473C13.0245 18.6407 12.3453 17.9659 11.5077 17.9659C10.6696 17.9659 9.99062 18.6407 9.99062 19.473ZM19.0318 46.4227C19.0318 47.2552 19.711 47.9298 20.5487 47.9298C21.3865 47.9298 22.0655 47.2552 22.0655 46.4227C22.0655 45.5904 21.3865 44.9155 20.5487 44.9155C19.711 44.9155 19.0318 45.5904 19.0318 46.4227ZM19.0318 10.4899C19.0318 11.3222 19.711 11.9971 20.5487 11.9971C21.3865 11.9971 22.0655 11.3222 22.0655 10.4899C22.0655 9.65744 21.3865 8.98282 20.5487 8.98282C19.711 8.98282 19.0318 9.65744 19.0318 10.4899ZM9.9894 55.4065C9.9894 56.2387 10.6686 56.9136 11.5065 56.9136C12.3441 56.9136 13.0233 56.2387 13.0233 55.4065C13.0233 54.5739 12.3441 53.8993 11.5065 53.8993C10.6684 53.8993 9.9894 54.5739 9.9894 55.4065ZM0.948425 55.4065C0.948425 56.2387 1.62739 56.9136 2.46526 56.9136C3.30289 56.9136 3.98211 56.2387 3.98211 55.4065C3.98211 54.5739 3.30289 53.8993 2.46526 53.8993C1.62739 53.8993 0.948425 54.5739 0.948425 55.4065ZM19.0306 55.4065C19.0306 56.2387 19.7098 56.9136 20.5475 56.9136C21.3853 56.9136 22.0643 56.2387 22.0643 55.4065C22.0643 54.5739 21.3853 53.8993 20.5475 53.8993C19.7098 53.8993 19.0306 54.5739 19.0306 55.4065ZM0.948425 1.50712C0.948425 2.33963 1.62764 3.01425 2.46551 3.01425C3.30314 3.01425 3.98235 2.33939 3.98235 1.50712C3.98235 0.67462 3.30314 0 2.46551 0C1.62764 0 0.948425 0.674861 0.948425 1.50712ZM9.98988 1.50712C9.98988 2.33963 10.6691 3.01425 11.507 3.01425C12.3446 3.01425 13.0238 2.33939 13.0238 1.50712C13.0238 0.67462 12.3446 0 11.507 0C10.6689 0 9.98988 0.674861 9.98988 1.50712ZM19.0311 1.50712C19.0311 2.33963 19.7103 3.01425 20.548 3.01425C21.3858 3.01425 22.0648 2.33939 22.0648 1.50712C22.0648 0.67462 21.3858 0 20.548 0C19.7103 0 19.0311 0.674861 19.0311 1.50712ZM0.948662 10.4904C0.948662 11.3227 1.62787 11.9976 2.46574 11.9976C3.30337 11.9976 3.98259 11.3227 3.98259 10.4904C3.98259 9.65792 3.30337 8.9833 2.46574 8.9833C1.62787 8.9833 0.948662 9.65792 0.948662 10.4904ZM9.99013 10.4904C9.99013 11.3227 10.6693 11.9976 11.5072 11.9976C12.3448 11.9976 13.0241 11.3227 13.0241 10.4904C13.0241 9.65792 12.3448 8.9833 11.5072 8.9833C10.6691 8.9833 9.99013 9.65792 9.99013 10.4904ZM36.9239 37.4398C36.9239 38.2721 37.6029 38.947 38.4407 38.947C39.2784 38.947 39.9576 38.2721 39.9576 37.4398C39.9576 36.6073 39.2784 35.9325 38.4407 35.9325C37.6029 35.9325 36.9239 36.6073 36.9239 37.4398ZM36.9239 28.4565C36.9239 29.2891 37.6029 29.9637 38.4407 29.9637C39.2784 29.9637 39.9576 29.2891 39.9576 28.4565C39.9576 27.6243 39.2784 26.9494 38.4407 26.9494C37.6029 26.9494 36.9239 27.6243 36.9239 28.4565ZM36.9239 46.4231C36.9239 47.2554 37.6029 47.93 38.4407 47.93C39.2784 47.93 39.9576 47.2554 39.9576 46.4229C39.9576 45.5906 39.2784 44.9158 38.4407 44.9158C37.6029 44.9158 36.9239 45.5909 36.9239 46.4231ZM45.9649 28.4563C45.9649 29.2888 46.6441 29.9634 47.4817 29.9634C48.3198 29.9634 48.9988 29.2888 48.9988 28.4563C48.9988 27.624 48.3196 26.9492 47.4817 26.9492C46.6441 26.9492 45.9649 27.624 45.9649 28.4563ZM27.8829 37.4398C27.8829 38.2721 28.5621 38.947 29.3997 38.947C30.2376 38.947 30.9166 38.2721 30.9166 37.4398C30.9166 36.6073 30.2376 35.9325 29.3997 35.9325C28.5621 35.9325 27.8829 36.6073 27.8829 37.4398ZM27.8829 46.4229C27.8829 47.2554 28.5621 47.93 29.3997 47.93C30.2376 47.93 30.9166 47.2554 30.9166 46.4229C30.9166 45.5906 30.2376 44.9158 29.3997 44.9158C28.5621 44.9158 27.8829 45.5906 27.8829 46.4229ZM45.9653 37.4398C45.9653 38.2721 46.6443 38.947 47.482 38.947C48.3201 38.947 48.999 38.2721 48.999 37.4398C48.999 36.6073 48.3198 35.9325 47.482 35.9325C46.6443 35.9325 45.9653 36.6073 45.9653 37.4398ZM27.8827 19.4732C27.8827 20.3058 28.5619 20.9806 29.3995 20.9806C30.2374 20.9806 30.9163 20.3058 30.9163 19.4732C30.9163 18.641 30.2374 17.9661 29.3995 17.9661C28.5619 17.9661 27.8827 18.641 27.8827 19.4732ZM27.8827 28.4565C27.8827 29.2891 28.5619 29.9637 29.3995 29.9637C30.2374 29.9637 30.9163 29.2891 30.9163 28.4565C30.9163 27.6243 30.2374 26.9494 29.3995 26.9494C28.5619 26.9494 27.8827 27.6243 27.8827 28.4565ZM45.9651 19.4732C45.9651 20.3058 46.6441 20.9806 47.4817 20.9806C48.3198 20.9806 48.9988 20.3058 48.9988 19.4732C48.9988 18.641 48.3196 17.9661 47.4817 17.9661C46.6441 17.9661 45.9651 18.641 45.9651 19.4732ZM36.9236 19.4732C36.9236 20.3058 37.6026 20.9806 38.4405 20.9806C39.2781 20.9806 39.9573 20.3058 39.9573 19.4732C39.9573 18.641 39.2781 17.9661 38.4405 17.9661C37.6026 17.9661 36.9236 18.641 36.9236 19.4732ZM45.9646 46.4229C45.9646 47.2554 46.6438 47.93 47.4815 47.93C48.3196 47.93 48.9986 47.2554 48.9986 46.4229C48.9986 45.5906 48.3193 44.9158 47.4815 44.9158C46.6438 44.9158 45.9646 45.5906 45.9646 46.4229ZM45.9646 10.4902C45.9646 11.3224 46.6438 11.9973 47.4815 11.9973C48.3196 11.9973 48.9986 11.3224 48.9986 10.4902C48.9986 9.65768 48.3193 8.98306 47.4815 8.98306C46.6438 8.98306 45.9646 9.65768 45.9646 10.4902ZM36.9239 55.4065C36.9239 56.2387 37.6029 56.9136 38.4407 56.9136C39.2784 56.9136 39.9576 56.2387 39.9576 55.4065C39.9576 54.5739 39.2784 53.8993 38.4407 53.8993C37.6029 53.8993 36.9239 54.5739 36.9239 55.4065ZM27.8827 55.4065C27.8827 56.2387 28.5619 56.9136 29.3995 56.9136C30.2374 56.9136 30.9163 56.2387 30.9163 55.4065C30.9163 54.5739 30.2374 53.8993 29.3995 53.8993C28.5619 53.8993 27.8827 54.5739 27.8827 55.4065ZM45.9651 55.4065C45.9651 56.2387 46.6441 56.9136 47.4817 56.9136C48.3198 56.9136 48.9988 56.2387 48.9988 55.4065C48.9988 54.5739 48.3196 53.8993 47.4817 53.8993C46.6441 53.8993 45.9651 54.5739 45.9651 55.4065ZM27.8824 1.50712C27.8824 2.33963 28.5616 3.01425 29.3993 3.01425C30.2371 3.01425 30.9161 2.33939 30.9161 1.50712C30.9161 0.67462 30.2371 0 29.3993 0C28.5616 0 27.8824 0.674861 27.8824 1.50712ZM36.9236 1.50712C36.9236 2.33963 37.6026 3.01425 38.4405 3.01425C39.2781 3.01425 39.9573 2.33939 39.9573 1.50712C39.9573 0.67462 39.2781 0 38.4405 0C37.6026 0 36.9236 0.674861 36.9236 1.50712ZM45.9646 1.50712C45.9646 2.33963 46.6438 3.01425 47.4815 3.01425C48.3196 3.01425 48.9986 2.33939 48.9986 1.50712C48.9986 0.67462 48.3193 0 47.4815 0C46.6438 0 45.9646 0.674861 45.9646 1.50712ZM27.8829 10.4904C27.8829 11.3227 28.5621 11.9976 29.3997 11.9976C30.2376 11.9976 30.9166 11.3227 30.9166 10.4904C30.9166 9.65792 30.2376 8.9833 29.3997 8.9833C28.5621 8.9833 27.8829 9.65792 27.8829 10.4904ZM36.9241 10.4904C36.9241 11.3227 37.6031 11.9976 38.441 11.9976C39.2786 11.9976 39.9578 11.3227 39.9578 10.4904C39.9578 9.65792 39.2786 8.9833 38.441 8.9833C37.6031 8.9833 36.9241 9.65792 36.9241 10.4904ZM9.98964 100.493C9.98964 101.325 10.6689 102 11.5067 102C12.3444 102 13.0236 101.325 13.0236 100.493C13.0236 99.6601 12.3444 98.9855 11.5067 98.9855C10.6686 98.9855 9.98964 99.6601 9.98964 100.493ZM9.98964 91.5093C9.98964 92.3418 10.6689 93.0165 11.5067 93.0165C12.3444 93.0165 13.0236 92.3418 13.0236 91.5093C13.0236 90.6771 12.3444 90.0022 11.5067 90.0022C10.6686 90.0022 9.98964 90.6771 9.98964 91.5093ZM19.0309 91.5093C19.0309 92.3418 19.7101 93.0165 20.5477 93.0165C21.3856 93.0165 22.0646 92.3418 22.0646 91.5093C22.0646 90.6771 21.3856 90.0022 20.5477 90.0022C19.7101 90.0022 19.0309 90.6771 19.0309 91.5093ZM0.948425 100.493C0.948425 101.325 1.62764 102 2.46551 102C3.30314 102 3.98235 101.325 3.98235 100.493C3.98235 99.6601 3.30314 98.9855 2.46551 98.9855C1.62764 98.9855 0.948425 99.6601 0.948425 100.493ZM19.0311 100.493C19.0311 101.325 19.7103 102 20.548 102C21.3858 102 22.0648 101.325 22.0648 100.493C22.0648 99.6601 21.3858 98.9855 20.548 98.9855C19.7103 98.9855 19.0311 99.6601 19.0311 100.493ZM0.948662 82.526C0.948662 83.3585 1.62787 84.0334 2.46574 84.0334C3.30337 84.0334 3.98259 83.3585 3.98259 82.5263C3.98259 81.6938 3.30337 81.0189 2.46574 81.0189C1.62787 81.0189 0.948662 81.6935 0.948662 82.526ZM0.948906 91.5096C0.948906 92.3421 1.62812 93.0167 2.46599 93.0167C3.30362 93.0167 3.98283 92.3421 3.98283 91.5096C3.98283 90.6773 3.30362 90.0024 2.46599 90.0024C1.62812 90.0024 0.948906 90.6773 0.948906 91.5096ZM19.0316 82.5265C19.0316 83.3588 19.7108 84.0336 20.5484 84.0336C21.3863 84.0336 22.0653 83.3588 22.0653 82.5265C22.0653 81.694 21.3863 81.0191 20.5484 81.0191C19.7108 81.0191 19.0316 81.694 19.0316 82.5265ZM9.99037 82.5265C9.99037 83.3588 10.6696 84.0336 11.5075 84.0336C12.3451 84.0336 13.0243 83.3588 13.0243 82.5265C13.0243 81.694 12.3451 81.0191 11.5075 81.0191C10.6693 81.0191 9.99037 81.694 9.99037 82.5265ZM19.0316 73.5432C19.0316 74.3755 19.7108 75.0503 20.5484 75.0503C21.3863 75.0503 22.0653 74.3755 22.0653 73.5432C22.0653 72.7107 21.3863 72.0361 20.5484 72.0361C19.7108 72.0361 19.0316 72.7107 19.0316 73.5432ZM0.94915 64.5599C0.94915 65.3924 1.62836 66.067 2.46623 66.067C3.30386 66.067 3.98308 65.3924 3.98308 64.5599C3.98308 63.7276 3.30386 63.0528 2.46623 63.0528C1.62836 63.0528 0.94915 63.7276 0.94915 64.5599ZM9.99062 64.5599C9.99062 65.3924 10.6698 66.067 11.5077 66.067C12.3453 66.067 13.0245 65.3924 13.0245 64.5599C13.0245 63.7276 12.3453 63.0528 11.5077 63.0528C10.6696 63.0528 9.99062 63.7276 9.99062 64.5599ZM19.0318 64.5599C19.0318 65.3924 19.711 66.067 20.5487 66.067C21.3865 66.067 22.0655 65.3924 22.0655 64.5599C22.0655 63.7276 21.3865 63.0528 20.5487 63.0528C19.711 63.0528 19.0318 63.7276 19.0318 64.5599ZM0.949394 73.5432C0.949394 74.3755 1.6286 75.0503 2.46648 75.0503C3.30411 75.0503 3.98331 74.3755 3.98331 73.5432C3.98331 72.7107 3.30411 72.0361 2.46648 72.0361C1.6286 72.0361 0.949394 72.7107 0.949394 73.5432ZM9.99085 73.5432C9.99085 74.3755 10.6701 75.0503 11.5079 75.0503C12.3456 75.0503 13.0248 74.3755 13.0248 73.5432C13.0248 72.7107 12.3456 72.0361 11.5079 72.0361C10.6698 72.0361 9.99085 72.7107 9.99085 73.5432ZM36.9251 100.493C36.9251 101.325 37.6041 102 38.4419 102C39.2796 102 39.9588 101.325 39.9588 100.493C39.9588 99.6604 39.2796 98.9857 38.4419 98.9857C37.6041 98.9857 36.9251 99.6604 36.9251 100.493ZM36.9251 91.5096C36.9251 92.3421 37.6041 93.0167 38.4419 93.0167C39.2796 93.0167 39.9588 92.3421 39.9588 91.5096C39.9588 90.6773 39.2796 90.0024 38.4419 90.0024C37.6041 90.0024 36.9251 90.6773 36.9251 91.5096ZM45.9661 91.5096C45.9661 92.3421 46.6453 93.0167 47.4829 93.0167C48.321 93.0167 49 92.3421 49 91.5096C49 90.6773 48.3208 90.0024 47.4829 90.0024C46.6453 90.0024 45.9661 90.6773 45.9661 91.5096ZM27.8829 100.493C27.8829 101.325 28.5621 102 29.3997 102C30.2376 102 30.9166 101.325 30.9166 100.493C30.9166 99.6601 30.2376 98.9855 29.3997 98.9855C28.5621 98.9855 27.8829 99.6601 27.8829 100.493ZM45.9653 100.493C45.9653 101.325 46.6443 102 47.482 102C48.3201 102 48.999 101.325 48.999 100.493C48.999 99.6601 48.3198 98.9855 47.482 98.9855C46.6443 98.9855 45.9653 99.6601 45.9653 100.493ZM27.8827 82.526C27.8827 83.3585 28.5619 84.0334 29.3995 84.0334C30.2374 84.0334 30.9163 83.3585 30.9163 82.5263C30.9163 81.6938 30.2374 81.0189 29.3995 81.0189C28.5619 81.0189 27.8827 81.6935 27.8827 82.526ZM27.8827 91.5096C27.8827 92.3421 28.5619 93.0167 29.3995 93.0167C30.2374 93.0167 30.9163 92.3421 30.9163 91.5096C30.9163 90.6773 30.2374 90.0024 29.3995 90.0024C28.5619 90.0024 27.8827 90.6773 27.8827 91.5096ZM45.9651 82.5265C45.9651 83.3588 46.6441 84.0336 47.4817 84.0336C48.3198 84.0336 48.9988 83.3588 48.9988 82.5265C48.9988 81.694 48.3196 81.0191 47.4817 81.0191C46.6441 81.0191 45.9651 81.694 45.9651 82.5265ZM36.9236 82.5265C36.9236 83.3588 37.6026 84.0336 38.4405 84.0336C39.2781 84.0336 39.9573 83.3588 39.9573 82.5265C39.9573 81.694 39.2781 81.0191 38.4405 81.0191C37.6026 81.0191 36.9236 81.694 36.9236 82.5265ZM45.9646 73.5432C45.9646 74.3755 46.6438 75.0503 47.4815 75.0503C48.3196 75.0503 48.9986 74.3755 48.9986 73.5432C48.9986 72.7107 48.3193 72.0361 47.4815 72.0361C46.6438 72.0361 45.9646 72.7107 45.9646 73.5432ZM27.8829 64.5594C27.8829 65.3919 28.5621 66.0666 29.3997 66.0666C30.2376 66.0666 30.9166 65.3919 30.9166 64.5594C30.9166 63.7272 30.2376 63.0523 29.3997 63.0523C28.5621 63.0523 27.8829 63.7272 27.8829 64.5594ZM36.9241 64.5594C36.9241 65.3919 37.6031 66.0666 38.441 66.0666C39.2786 66.0666 39.9578 65.3919 39.9578 64.5594C39.9578 63.7272 39.2786 63.0523 38.441 63.0523C37.6031 63.0523 36.9241 63.7272 36.9241 64.5594ZM45.9651 64.5594C45.9651 65.3919 46.6443 66.0666 47.482 66.0666C48.3201 66.0666 48.999 65.3919 48.999 64.5594C48.999 63.7272 48.3198 63.0523 47.482 63.0523C46.6443 63.0523 45.9651 63.7272 45.9651 64.5594ZM27.8829 73.5427C27.8829 74.375 28.5621 75.0499 29.3997 75.0499C30.2376 75.0499 30.9166 74.375 30.9166 73.5427C30.9166 72.7102 30.2376 72.0356 29.3997 72.0356C28.5621 72.0356 27.8829 72.7102 27.8829 73.5427ZM36.9241 73.5427C36.9241 74.375 37.6031 75.0499 38.441 75.0499C39.2786 75.0499 39.9578 74.375 39.9578 73.5427C39.9578 72.7102 39.2786 72.0356 38.441 72.0356C37.6031 72.0356 36.9241 72.7102 36.9241 73.5427Z" fill="#707070"/>
</svg>
