<svg width="35" height="34" viewBox="0 0 35 34" fill="none" xmlns="http://www.w3.org/2000/svg">
<path d="M3.43323e-05 17.5C3.43323e-05 16.1193 1.11932 15 2.50003 15H32.5C33.8807 15 35 16.1193 35 17.5V17.5C35 18.8807 33.8807 20 32.5 20H2.50003C1.11932 20 3.43323e-05 18.8807 3.43323e-05 17.5V17.5Z" fill="#373737"/>
<path d="M0 31.5C0 30.1193 1.11929 29 2.5 29H32.5C33.8807 29 35 30.1193 35 31.5C35 32.8807 33.8807 34 32.5 34H2.5C1.11929 34 0 32.8807 0 31.5Z" fill="#373737"/>
<path d="M3.8147e-06 2.5C3.8147e-06 1.11929 1.11929 0 2.5 0H32.5C33.8807 0 35 1.11929 35 2.5C35 3.88071 33.8807 5 32.5 5H2.5C1.11929 5 3.8147e-06 3.88071 3.8147e-06 2.5Z" fill="#373737"/>
</svg>
