<svg width="49" height="103" viewBox="0 0 49 103" fill="none" xmlns="http://www.w3.org/2000/svg">
<path d="M37.847 93.3666C38.6888 93.3666 39.3707 92.6847 39.3707 91.8431C39.3707 91.0018 38.6885 90.3196 37.8472 90.3196C37.0056 90.3196 36.3234 91.0018 36.3234 91.8431C36.3234 92.6847 37.0054 93.3666 37.847 93.3666ZM28.7665 93.3666C29.608 93.3666 30.29 92.6847 30.29 91.8431C30.29 91.0018 29.608 90.3196 28.7665 90.3196C27.9251 90.3196 27.2429 91.0018 27.2429 91.8431C27.2429 92.6847 27.9251 93.3666 28.7665 93.3666ZM46.9284 93.3666C47.7697 93.3666 48.4517 92.6847 48.4517 91.8431C48.4517 91.0018 47.7697 90.3196 46.9282 90.3196C46.0869 90.3196 45.4047 91.0018 45.4047 91.8431C45.4047 92.6847 46.0871 93.3666 46.9284 93.3666ZM28.7662 84.2859C29.6078 84.2859 30.2897 83.6037 30.2897 82.7624C30.2897 81.9208 29.6078 81.2386 28.7662 81.2386C27.9249 81.2386 27.2427 81.9208 27.2427 82.7624C27.2427 83.6037 27.9249 84.2859 28.7662 84.2859ZM37.847 102.448C38.6883 102.448 39.3705 101.765 39.3705 100.924C39.3705 100.083 38.6883 99.4006 37.847 99.4006C37.0054 99.4006 36.3232 100.083 36.3232 100.924C36.3232 101.765 37.0054 102.448 37.847 102.448ZM46.9277 102.448C47.7692 102.448 48.4512 101.765 48.4512 100.924C48.4512 100.083 47.7692 99.4006 46.9277 99.4006C46.0864 99.4006 45.4042 100.083 45.4042 100.924C45.4042 101.765 46.0864 102.448 46.9277 102.448ZM37.847 84.2856C38.6883 84.2856 39.3705 83.6037 39.3705 82.7624C39.3705 81.9208 38.6883 81.2386 37.847 81.2386C37.0054 81.2386 36.3232 81.9208 36.3232 82.7624C36.3232 83.6037 37.0054 84.2856 37.847 84.2856ZM19.685 102.448C20.5265 102.448 21.2087 101.765 21.2087 100.924C21.2087 100.083 20.5265 99.4006 19.685 99.4006C18.8437 99.4006 18.1615 100.083 18.1615 100.924C18.162 101.765 18.8437 102.448 19.685 102.448ZM28.7662 102.448C29.6078 102.448 30.2897 101.765 30.2897 100.924C30.2897 100.083 29.6078 99.4006 28.7662 99.4006C27.9249 99.4006 27.2427 100.083 27.2427 100.924C27.2427 101.765 27.9249 102.448 28.7662 102.448ZM19.685 84.2856C20.5265 84.2856 21.2087 83.6037 21.2087 82.7624C21.2087 81.9208 20.5265 81.2386 19.685 81.2386C18.8437 81.2386 18.1615 81.9208 18.1615 82.7624C18.1615 83.6037 18.8437 84.2856 19.685 84.2856ZM19.685 93.3669C20.5265 93.3669 21.2087 92.6849 21.2087 91.8433C21.2087 91.002 20.5265 90.3198 19.685 90.3198C18.8437 90.3198 18.1615 91.002 18.1615 91.8433C18.1615 92.6849 18.8437 93.3669 19.685 93.3669ZM46.9277 84.2861C47.7692 84.2861 48.4512 83.6039 48.4512 82.7626C48.4512 81.9211 47.7692 81.2389 46.9277 81.2389C46.0864 81.2389 45.4042 81.9211 45.4042 82.7626C45.4042 83.6039 46.0864 84.2861 46.9277 84.2861ZM10.6043 84.2861C11.4456 84.2861 12.1278 83.6039 12.1278 82.7626C12.1278 81.9211 11.4456 81.2389 10.6042 81.2389C9.76269 81.2389 9.08074 81.9211 9.08074 82.7626C9.08074 83.6039 9.76269 84.2861 10.6043 84.2861ZM1.52351 102.448C2.36507 102.448 3.04703 101.765 3.04703 100.924C3.04703 100.083 2.36483 99.4006 1.52351 99.4006C0.682199 99.4006 -1.0338e-07 100.083 -6.65949e-08 100.924C-2.98199e-08 101.765 0.682199 102.448 1.52351 102.448ZM1.52351 93.3666C2.36507 93.3666 3.04702 92.6847 3.04702 91.8431C3.04702 91.0018 2.36483 90.3196 1.52351 90.3196C0.682198 90.3196 -5.00312e-07 91.0018 -4.63537e-07 91.8431C-4.26752e-07 92.6847 0.682198 93.3666 1.52351 93.3666ZM1.52351 84.2859C2.36507 84.2859 3.04702 83.6037 3.04702 82.7624C3.04702 81.9208 2.36483 81.2386 1.52351 81.2386C0.682198 81.2386 -8.97254e-07 81.9208 -8.60458e-07 82.7626C-8.23683e-07 83.6039 0.682198 84.2859 1.52351 84.2859ZM10.6045 102.448C11.4458 102.448 12.128 101.765 12.128 100.924C12.128 100.083 11.4458 99.4006 10.6045 99.4006C9.76294 99.4006 9.08098 100.083 9.08098 100.924C9.08098 101.765 9.76294 102.448 10.6045 102.448ZM10.6045 93.3666C11.4458 93.3666 12.128 92.6847 12.128 91.8431C12.128 91.0018 11.4458 90.3196 10.6045 90.3196C9.76294 90.3196 9.08098 91.0018 9.08098 91.8431C9.08098 92.6847 9.76294 93.3666 10.6045 93.3666ZM37.847 66.3142C38.6883 66.3142 39.3705 65.6322 39.3705 64.7907C39.3705 63.9491 38.6883 63.2671 37.847 63.2671C37.0054 63.2671 36.3232 63.9491 36.3232 64.7907C36.3232 65.6322 37.0054 66.3142 37.847 66.3142ZM28.766 66.3142C29.6075 66.3142 30.2895 65.6322 30.2895 64.7907C30.2895 63.9491 29.6075 63.2671 28.766 63.2671C27.9247 63.2671 27.2425 63.9491 27.2425 64.7907C27.2425 65.6322 27.9247 66.3142 28.766 66.3142ZM46.9279 66.3142C47.7692 66.3142 48.4512 65.6322 48.4512 64.7907C48.4512 63.9491 47.7692 63.2671 46.9277 63.2671C46.0864 63.2671 45.4042 63.9491 45.4042 64.7907C45.4042 65.6322 46.0866 66.3142 46.9279 66.3142ZM28.7657 57.2332C29.6073 57.2332 30.2892 56.5512 30.2892 55.7097C30.2892 54.8684 29.6073 54.1862 28.7657 54.1862C27.9244 54.1862 27.2422 54.8684 27.2422 55.7097C27.2422 56.5512 27.9244 57.2332 28.7657 57.2332ZM37.8467 75.3952C38.688 75.3952 39.3702 74.713 39.3702 73.8714C39.3702 73.0301 38.688 72.3479 37.8467 72.3479C37.0052 72.3479 36.323 73.0301 36.323 73.8714C36.323 74.7132 37.0052 75.3952 37.8467 75.3952ZM46.9274 75.3952C47.769 75.3952 48.451 74.713 48.451 73.8714C48.451 73.0301 47.769 72.3479 46.9274 72.3479C46.0861 72.3479 45.4039 73.0301 45.4039 73.8714C45.4039 74.7132 46.0861 75.3952 46.9274 75.3952ZM37.8467 57.2332C38.688 57.2332 39.3702 56.5512 39.3702 55.7097C39.3702 54.8684 38.688 54.1862 37.8467 54.1862C37.0052 54.1862 36.323 54.8684 36.323 55.7097C36.323 56.5512 37.0052 57.2332 37.8467 57.2332ZM19.6847 75.3952C20.5263 75.3952 21.2085 74.713 21.2085 73.8714C21.2085 73.0301 20.5263 72.3479 19.6847 72.3479C18.8434 72.3479 18.1612 73.0301 18.1612 73.8714C18.1612 74.7132 18.8434 75.3952 19.6847 75.3952ZM28.7657 75.3952C29.6073 75.3952 30.2892 74.713 30.2892 73.8714C30.2892 73.0301 29.6073 72.3479 28.7657 72.3479C27.9244 72.3479 27.2422 73.0301 27.2422 73.8714C27.2422 74.7132 27.9244 75.3952 28.7657 75.3952ZM19.6847 57.2332C20.5263 57.2332 21.2085 56.5512 21.2085 55.7097C21.2085 54.8684 20.5263 54.1862 19.6847 54.1862C18.8434 54.1862 18.1612 54.8684 18.1612 55.7097C18.1612 56.5512 18.8434 57.2332 19.6847 57.2332ZM19.6847 66.3142C20.5263 66.3142 21.2085 65.6322 21.2085 64.7907C21.2085 63.9491 20.5263 63.2671 19.6847 63.2671C18.8434 63.2671 18.1612 63.9491 18.1612 64.7907C18.1612 65.6322 18.8434 66.3142 19.6847 66.3142ZM46.9274 57.2332C47.769 57.2332 48.451 56.5512 48.451 55.7097C48.451 54.8684 47.769 54.1862 46.9274 54.1862C46.0861 54.1862 45.4039 54.8684 45.4039 55.7097C45.4039 56.5512 46.0861 57.2332 46.9274 57.2332ZM10.604 57.2332C11.4453 57.2332 12.1275 56.5512 12.1275 55.7097C12.1275 54.8684 11.4453 54.1862 10.604 54.1862C9.76245 54.1862 9.08049 54.8684 9.08049 55.7097C9.08049 56.5512 9.76245 57.2332 10.604 57.2332ZM1.52351 75.3952C2.36507 75.3952 3.04702 74.713 3.04702 73.8714C3.04702 73.0301 2.36483 72.3479 1.52351 72.3479C0.681954 72.3479 -1.28588e-06 73.0301 -1.24911e-06 73.8714C-1.21231e-06 74.7132 0.682198 75.3952 1.52351 75.3952ZM1.52351 66.3142C2.36507 66.3142 3.04702 65.6322 3.04702 64.7907C3.04702 63.9491 2.36482 63.2671 1.52351 63.2671C0.681954 63.2671 -1.68282e-06 63.9491 -1.64604e-06 64.7907C-1.60925e-06 65.6322 0.682197 66.3142 1.52351 66.3142ZM1.52351 57.2332C2.36507 57.2332 3.04702 56.5512 3.04702 55.7097C3.04702 54.8684 2.36482 54.1862 1.52351 54.1862C0.681953 54.1862 -2.07975e-06 54.8684 -2.04298e-06 55.7097C-2.00619e-06 56.5512 0.682197 57.2332 1.52351 57.2332ZM10.6045 75.3952C11.4458 75.3952 12.128 74.713 12.128 73.8714C12.128 73.0301 11.4458 72.3479 10.6045 72.3479C9.76294 72.3479 9.08098 73.0301 9.08098 73.8714C9.08098 74.7132 9.76294 75.3952 10.6045 75.3952ZM10.6045 66.3142C11.4458 66.3142 12.128 65.6322 12.128 64.7907C12.128 63.9491 11.4458 63.2671 10.6045 63.2671C9.76294 63.2671 9.08098 63.9491 9.08098 64.7907C9.08098 65.6322 9.76294 66.3142 10.6045 66.3142ZM37.847 39.181C38.6883 39.181 39.3705 38.4988 39.3705 37.6572C39.3705 36.8159 38.6883 36.1337 37.847 36.1337C37.0054 36.1337 36.3232 36.8159 36.3232 37.6572C36.3232 38.499 37.0054 39.181 37.847 39.181ZM28.766 39.181C29.6075 39.181 30.2895 38.4988 30.2895 37.6572C30.2895 36.8159 29.6075 36.1337 28.766 36.1337C27.9247 36.1337 27.2425 36.8159 27.2425 37.6572C27.2425 38.499 27.9247 39.181 28.766 39.181ZM46.9279 39.181C47.7692 39.181 48.4512 38.4988 48.4512 37.6572C48.4512 36.8159 47.7692 36.1337 46.9277 36.1337C46.0864 36.1337 45.4042 36.8159 45.4042 37.6572C45.4042 38.499 46.0866 39.181 46.9279 39.181ZM28.7657 30.1C29.6073 30.1 30.2892 29.4178 30.2892 28.5765C30.2892 27.7349 29.6073 27.0529 28.7657 27.0529C27.9244 27.0529 27.2422 27.7349 27.2422 28.5765C27.2422 29.4178 27.9244 30.1 28.7657 30.1ZM37.8467 48.2619C38.688 48.2619 39.3702 47.5797 39.3702 46.7382C39.3702 45.8969 38.688 45.2147 37.8467 45.2147C37.0052 45.2147 36.323 45.8969 36.323 46.7382C36.323 47.5797 37.0052 48.2619 37.8467 48.2619ZM46.9274 48.2617C47.769 48.2617 48.451 47.5795 48.451 46.7379C48.451 45.8966 47.769 45.2144 46.9274 45.2144C46.0861 45.2144 45.4039 45.8966 45.4039 46.7379C45.4039 47.5795 46.0861 48.2617 46.9274 48.2617ZM37.8467 30.0995C38.688 30.0995 39.3702 29.4173 39.3702 28.576C39.3702 27.7344 38.688 27.0525 37.8467 27.0525C37.0051 27.0525 36.323 27.7344 36.323 28.576C36.323 29.4173 37.0051 30.0995 37.8467 30.0995ZM19.6847 48.2614C20.5263 48.2614 21.2085 47.5792 21.2085 46.7377C21.2085 45.8964 20.5263 45.2142 19.6847 45.2142C18.8434 45.2142 18.1612 45.8964 18.1612 46.7377C18.1612 47.5793 18.8434 48.2614 19.6847 48.2614ZM28.7657 48.2612C29.6073 48.2612 30.2892 47.579 30.2892 46.7374C30.2892 45.8961 29.6073 45.2139 28.7657 45.2139C27.9244 45.2139 27.2422 45.8961 27.2422 46.7374C27.2422 47.579 27.9244 48.2612 28.7657 48.2612ZM19.6847 30.099C20.5263 30.099 21.2085 29.4168 21.2085 28.5755C21.2085 27.7339 20.5263 27.052 19.6847 27.052C18.8434 27.052 18.1612 27.7339 18.1612 28.5755C18.1612 29.4168 18.8434 30.099 19.6847 30.099ZM19.6847 39.18C20.5263 39.18 21.2085 38.4978 21.2085 37.6562C21.2085 36.8149 20.5263 36.1327 19.6847 36.1327C18.8434 36.1327 18.1612 36.8149 18.1612 37.6562C18.1612 38.498 18.8434 39.18 19.6847 39.18ZM46.9274 30.099C47.769 30.099 48.451 29.4168 48.451 28.5755C48.451 27.7339 47.769 27.052 46.9274 27.052C46.0861 27.052 45.4039 27.7339 45.4039 28.5755C45.4039 29.4168 46.0861 30.099 46.9274 30.099ZM10.604 30.099C11.4453 30.099 12.1275 29.4168 12.1275 28.5755C12.1275 27.7339 11.4453 27.052 10.604 27.052C9.76245 27.052 9.08049 27.7339 9.08049 28.5755C9.08049 29.4168 9.76245 30.099 10.604 30.099ZM1.52351 48.2619C2.36507 48.2619 3.04702 47.5797 3.04702 46.7382C3.04702 45.8969 2.36482 45.2147 1.52351 45.2147C0.681953 45.2147 -2.47191e-06 45.8969 -2.43514e-06 46.7382C-2.39835e-06 47.5797 0.682197 48.2619 1.52351 48.2619ZM1.52351 39.1807C2.36507 39.1807 3.04702 38.4985 3.04702 37.657C3.04702 36.8156 2.36482 36.1334 1.52351 36.1334C0.681953 36.1334 -2.86886e-06 36.8156 -2.83209e-06 37.657C-2.79529e-06 38.4988 0.682196 39.1807 1.52351 39.1807ZM1.52351 30.0997C2.36507 30.0997 3.04702 29.4175 3.04702 28.5762C3.04702 27.7347 2.36482 27.0527 1.52351 27.0527C0.681952 27.0527 -3.26581e-06 27.7347 -3.22902e-06 28.5762C-3.19225e-06 29.4175 0.682196 30.0997 1.52351 30.0997ZM10.6045 48.2617C11.4458 48.2617 12.128 47.5795 12.128 46.7379C12.128 45.8966 11.4458 45.2144 10.6045 45.2144C9.76294 45.2144 9.08098 45.8966 9.08098 46.7379C9.08098 47.5795 9.76294 48.2617 10.6045 48.2617ZM10.6045 39.1805C11.4458 39.1805 12.128 38.4983 12.128 37.6567C12.128 36.8154 11.4458 36.1332 10.6045 36.1332C9.76294 36.1332 9.08098 36.8154 9.08098 37.6567C9.08098 38.4985 9.76294 39.1805 10.6045 39.1805ZM37.847 12.1283C38.6883 12.1283 39.3705 11.4463 39.3705 10.6047C39.3705 9.76344 38.6883 9.08124 37.847 9.08124C37.0054 9.08124 36.3232 9.76344 36.3232 10.6047C36.3232 11.4463 37.0054 12.1283 37.847 12.1283ZM28.766 12.1283C29.6075 12.1283 30.2895 11.4463 30.2895 10.6048C30.2895 9.76344 29.6075 9.08124 28.766 9.08124C27.9247 9.08124 27.2425 9.76344 27.2425 10.6048C27.2425 11.4463 27.9247 12.1283 28.766 12.1283ZM46.9279 12.1283C47.7692 12.1283 48.4512 11.4463 48.4512 10.6047C48.4512 9.76344 47.7692 9.08124 46.9277 9.08124C46.0864 9.08124 45.4042 9.76344 45.4042 10.6047C45.4042 11.4463 46.0866 12.1283 46.9279 12.1283ZM28.7657 3.04752C29.6073 3.04752 30.2892 2.36532 30.2892 1.52401C30.2892 0.682208 29.6073 0.000250476 28.7657 0.000250513C27.9244 0.000250549 27.2422 0.682451 27.2422 1.52401C27.2422 2.36532 27.9244 3.04752 28.7657 3.04752ZM37.847 21.209C38.6883 21.209 39.3705 20.5268 39.3705 19.6855C39.3705 18.8439 38.6883 18.162 37.847 18.162C37.0054 18.162 36.3232 18.8439 36.3232 19.6855C36.3232 20.5268 37.0054 21.209 37.847 21.209ZM46.9277 21.209C47.7692 21.209 48.4512 20.5268 48.4512 19.6855C48.4512 18.8439 47.7692 18.162 46.9277 18.162C46.0864 18.162 45.4042 18.8439 45.4042 19.6855C45.4042 20.5268 46.0864 21.209 46.9277 21.209ZM37.847 3.04704C38.6883 3.04704 39.3705 2.36508 39.3705 1.52376C39.3705 0.681964 38.6883 5.93828e-06 37.8469 5.97505e-06C37.0054 6.01184e-06 36.3232 0.682207 36.3232 1.52376C36.3232 2.36508 37.0054 3.04704 37.847 3.04704ZM19.685 21.2092C20.5265 21.2092 21.2087 20.5271 21.2087 19.6857C21.2087 18.8442 20.5265 18.1622 19.685 18.1622C18.8437 18.1622 18.1615 18.8442 18.1615 19.6857C18.1615 20.5271 18.8437 21.2092 19.685 21.2092ZM28.766 21.2092C29.6075 21.2092 30.2895 20.5271 30.2895 19.6857C30.2895 18.8442 29.6075 18.1622 28.766 18.1622C27.9247 18.1622 27.2425 18.8442 27.2425 19.6857C27.2425 20.5271 27.9247 21.2092 28.766 21.2092ZM19.685 3.04729C20.5265 3.04729 21.2087 2.36532 21.2087 1.52401C21.2087 0.682208 20.5265 0.000250873 19.685 0.00025091C18.8437 0.000250946 18.1615 0.682452 18.1615 1.52401C18.1615 2.36532 18.8437 3.04729 19.685 3.04729ZM19.685 12.1285C20.5265 12.1285 21.2087 11.4466 21.2087 10.605C21.2087 9.76368 20.5265 9.08148 19.685 9.08148C18.8437 9.08148 18.1615 9.76368 18.1615 10.605C18.1615 11.4466 18.8437 12.1285 19.685 12.1285ZM46.9277 3.04777C47.7692 3.04777 48.4512 2.36557 48.4512 1.52425C48.4512 0.682451 47.7692 0.000501452 46.9277 0.000501489C46.0864 0.000501526 45.4042 0.682695 45.4042 1.52425C45.4042 2.36557 46.0864 3.04777 46.9277 3.04777ZM10.6042 3.04777C11.4456 3.04777 12.1278 2.36557 12.1278 1.52425C12.1278 0.682453 11.4456 0.00050304 10.6042 0.000503077C9.76269 0.000503113 9.08073 0.682696 9.08073 1.52425C9.08073 2.36557 9.76269 3.04777 10.6042 3.04777ZM1.52351 21.2095C2.36507 21.2095 3.04702 20.5273 3.04702 19.686C3.04702 18.8444 2.36482 18.1625 1.52351 18.1625C0.681952 18.1625 -3.65441e-06 18.8444 -3.61763e-06 19.686C-3.58085e-06 20.5273 0.682195 21.2095 1.52351 21.2095ZM1.52351 12.1285C2.36507 12.1285 3.04702 11.4466 3.04702 10.605C3.04702 9.76368 2.36482 9.08148 1.52351 9.08148C0.681951 9.08148 -4.05134e-06 9.76368 -4.01457e-06 10.605C-3.97778e-06 11.4466 0.682195 12.1285 1.52351 12.1285ZM1.52351 3.04777C2.36507 3.04777 3.04702 2.36557 3.04702 1.52425C3.04702 0.682453 2.36482 0.000503437 1.52351 0.000503473C0.681951 0.00050351 -4.44829e-06 0.682697 -4.4115e-06 1.52425C-4.37472e-06 2.36557 0.682195 3.04777 1.52351 3.04777ZM10.6045 21.209C11.4458 21.209 12.128 20.5268 12.128 19.6855C12.128 18.8439 11.4458 18.162 10.6045 18.162C9.76293 18.162 9.08098 18.8439 9.08098 19.6855C9.08098 20.5268 9.76293 21.209 10.6045 21.209ZM10.6045 12.128C11.4458 12.128 12.128 11.4461 12.128 10.6045C12.128 9.76319 11.4458 9.08099 10.6045 9.08099C9.76293 9.08099 9.08098 9.76319 9.08098 10.6045C9.08098 11.4461 9.76293 12.128 10.6045 12.128Z" fill="#707070"/>
</svg>
