<svg width="46" height="100" viewBox="0 0 46 100" fill="none" xmlns="http://www.w3.org/2000/svg">
<path d="M8.65547 36.7058C8.65547 37.5222 9.30547 38.1836 10.1076 38.1836C10.9095 38.1836 11.5597 37.522 11.5597 36.7061C11.5597 35.8899 10.9095 35.2282 10.1076 35.2282C9.30547 35.2282 8.65547 35.8896 8.65547 36.7058ZM8.65547 27.8991C8.65547 28.7153 9.30547 29.3767 10.1076 29.3767C10.9095 29.3767 11.5597 28.7153 11.5597 27.8991C11.5597 27.0832 10.9095 26.4215 10.1076 26.4215C9.30547 26.4215 8.65547 27.0832 8.65547 27.8991ZM8.65547 45.5135C8.65547 46.3294 9.30547 46.9908 10.1076 46.9908C10.9095 46.9908 11.5597 46.3294 11.5597 45.5132C11.5597 44.6973 10.9095 44.0357 10.1076 44.0357C9.30547 44.0357 8.65547 44.6975 8.65547 45.5135ZM17.3107 27.8989C17.3107 28.7151 17.9609 29.3765 18.7628 29.3765C19.5649 29.3765 20.2152 28.7151 20.2152 27.8989C20.2152 27.0829 19.5649 26.4213 18.7628 26.4213C17.9609 26.4213 17.3107 27.0829 17.3107 27.8989ZM0 36.7058C0 37.5218 0.650232 38.1834 1.45212 38.1834C2.25425 38.1834 2.90425 37.5218 2.90425 36.7058C2.90425 35.8896 2.25425 35.228 1.45212 35.228C0.650232 35.228 0 35.8896 0 36.7058ZM0 45.5128C0 46.3289 0.650232 46.9903 1.45212 46.9903C2.25425 46.9903 2.90425 46.3289 2.90425 45.5128C2.90425 44.6968 2.25425 44.0352 1.45212 44.0352C0.650232 44.0352 0 44.6968 0 45.5128ZM17.3109 36.7058C17.3109 37.5218 17.9609 38.1834 18.7628 38.1834C19.5649 38.1834 20.2152 37.5218 20.2152 36.7058C20.2152 35.8896 19.5649 35.228 18.7628 35.228C17.9609 35.228 17.3109 35.8896 17.3109 36.7058ZM0 19.0915C0 19.9076 0.650232 20.5693 1.45212 20.5693C2.25425 20.5693 2.90425 19.9076 2.90425 19.0915C2.90425 18.2755 2.25425 17.6139 1.45212 17.6139C0.650232 17.6144 0 18.2755 0 19.0915ZM0 27.8989C0 28.7151 0.650232 29.3765 1.45212 29.3765C2.25425 29.3765 2.90425 28.7151 2.90425 27.8989C2.90425 27.0829 2.25425 26.4213 1.45212 26.4213C0.650232 26.4213 0 27.0829 0 27.8989ZM17.3109 19.0915C17.3109 19.9076 17.9609 20.5693 18.7628 20.5693C19.5649 20.5693 20.2152 19.9076 20.2152 19.0915C20.2152 18.2755 19.5649 17.6139 18.7628 17.6139C17.9609 17.6139 17.3109 18.2755 17.3109 19.0915ZM8.65523 19.0915C8.65523 19.9076 9.30523 20.5693 10.1074 20.5693C10.9092 20.5693 11.5595 19.9076 11.5595 19.0915C11.5595 18.2755 10.9092 17.6139 10.1074 17.6139C9.30523 17.6139 8.65523 18.2755 8.65523 19.0915ZM17.3105 45.5128C17.3105 46.3289 17.9607 46.9903 18.7626 46.9903C19.5647 46.9903 20.2149 46.3289 20.2149 45.5128C20.2149 44.6968 19.5647 44.0352 18.7626 44.0352C17.9607 44.0352 17.3105 44.6968 17.3105 45.5128ZM17.3105 10.2845C17.3105 11.1005 17.9607 11.7621 18.7626 11.7621C19.5647 11.7621 20.2149 11.1005 20.2149 10.2845C20.2149 9.46834 19.5647 8.80694 18.7626 8.80694C17.9607 8.80694 17.3105 9.46834 17.3105 10.2845ZM8.65547 54.3202C8.65547 55.1361 9.30547 55.7978 10.1076 55.7978C10.9095 55.7978 11.5597 55.1361 11.5597 54.3202C11.5597 53.504 10.9095 52.8426 10.1076 52.8426C9.30547 52.8426 8.65547 53.504 8.65547 54.3202ZM0 54.3202C0 55.1361 0.650232 55.7978 1.45212 55.7978C2.25425 55.7978 2.90425 55.1361 2.90425 54.3202C2.90425 53.504 2.25425 52.8426 1.45212 52.8426C0.650232 52.8426 0 53.504 0 54.3202ZM17.3109 54.3202C17.3109 55.1361 17.9609 55.7978 18.7628 55.7978C19.5649 55.7978 20.2152 55.1361 20.2152 54.3202C20.2152 53.504 19.5649 52.8426 18.7628 52.8426C17.9609 52.8426 17.3109 53.504 17.3109 54.3202ZM0 1.47758C0 2.29376 0.650232 2.95515 1.45212 2.95515C2.25425 2.95515 2.90425 2.29352 2.90425 1.47758C2.90425 0.66163 2.25425 0 1.45212 0C0.650232 0 0 0.66163 0 1.47758ZM8.65547 1.47758C8.65547 2.29376 9.30547 2.95515 10.1076 2.95515C10.9095 2.95515 11.5597 2.29352 11.5597 1.47758C11.5597 0.66163 10.9095 0 10.1076 0C9.30547 0 8.65547 0.66163 8.65547 1.47758ZM17.3107 1.47758C17.3107 2.29376 17.9609 2.95515 18.7628 2.95515C19.5649 2.95515 20.2152 2.29352 20.2152 1.47758C20.2152 0.66163 19.5649 0 18.7626 0C17.9607 0 17.3107 0.66163 17.3107 1.47758ZM0 10.2848C0 11.1007 0.650232 11.7623 1.45212 11.7623C2.25425 11.7623 2.90425 11.1007 2.90425 10.2848C2.90425 9.46857 2.25425 8.80718 1.45212 8.80718C0.650232 8.80718 0 9.46857 0 10.2848ZM8.65547 10.2848C8.65547 11.1007 9.30547 11.7623 10.1076 11.7623C10.9095 11.7623 11.5597 11.1007 11.5597 10.2848C11.5597 9.46857 10.9095 8.80718 10.1076 8.80718C9.30547 8.80718 8.65547 9.46857 8.65547 10.2848ZM34.4403 36.7058C34.4403 37.5218 35.0903 38.1834 35.8924 38.1834C36.6945 38.1834 37.3445 37.5218 37.3445 36.7058C37.3445 35.8896 36.6945 35.228 35.8924 35.228C35.0903 35.228 34.4403 35.8896 34.4403 36.7058ZM34.4403 27.8986C34.4403 28.7148 35.0903 29.3762 35.8924 29.3762C36.6945 29.3762 37.3445 28.7148 37.3445 27.8986C37.3445 27.0827 36.6945 26.4211 35.8924 26.4211C35.0903 26.4211 34.4403 27.0827 34.4403 27.8986ZM34.4403 45.513C34.4403 46.3289 35.0903 46.9903 35.8924 46.9903C36.6945 46.9903 37.3445 46.3289 37.3445 45.5128C37.3445 44.6968 36.6945 44.0352 35.8924 44.0352C35.0903 44.0352 34.4403 44.697 34.4403 45.513ZM43.0958 27.8984C43.0958 28.7146 43.7458 29.376 44.5479 29.376C45.3498 29.376 46 28.7146 46 27.8984C46 27.0825 45.3498 26.4208 44.5479 26.4208C43.7458 26.4208 43.0958 27.0825 43.0958 27.8984ZM25.7848 36.7056C25.7848 37.5215 26.4351 38.1832 27.2372 38.1832C28.0391 38.1832 28.6893 37.5215 28.6893 36.7056C28.6893 35.8894 28.0391 35.2278 27.2372 35.2278C26.4348 35.2278 25.7848 35.8894 25.7848 36.7056ZM25.7848 45.5125C25.7848 46.3287 26.4351 46.9901 27.2372 46.9901C28.0391 46.9901 28.6893 46.3287 28.6893 45.5125C28.6893 44.6966 28.0391 44.0349 27.2372 44.0349C26.4348 44.0349 25.7848 44.6966 25.7848 45.5125ZM43.0958 36.7056C43.0958 37.5215 43.7458 38.1832 44.5479 38.1832C45.3498 38.1832 46 37.5215 46 36.7056C46 35.8894 45.3498 35.2278 44.5479 35.2278C43.7458 35.2278 43.0958 35.8894 43.0958 36.7056ZM25.7848 19.0912C25.7848 19.9074 26.4351 20.569 27.2372 20.569C28.0391 20.569 28.6893 19.9074 28.6893 19.0912C28.6893 18.2753 28.0391 17.6136 27.2372 17.6136C26.4348 17.6136 25.7848 18.2753 25.7848 19.0912ZM25.7848 27.8984C25.7848 28.7146 26.4351 29.376 27.2372 29.376C28.0391 29.376 28.6893 28.7146 28.6893 27.8984C28.6893 27.0825 28.0391 26.4208 27.2372 26.4208C26.4348 26.4208 25.7848 27.0825 25.7848 27.8984ZM43.0958 19.0912C43.0958 19.9074 43.7458 20.569 44.5479 20.569C45.3498 20.569 46 19.9074 46 19.0912C46 18.2753 45.3498 17.6136 44.5479 17.6136C43.7458 17.6136 43.0958 18.2753 43.0958 19.0912ZM34.4403 19.0912C34.4403 19.9074 35.0903 20.569 35.8924 20.569C36.6945 20.569 37.3445 19.9074 37.3445 19.0912C37.3445 18.2753 36.6945 17.6136 35.8924 17.6136C35.0903 17.6136 34.4403 18.2753 34.4403 19.0912ZM43.0958 45.5125C43.0958 46.3287 43.7458 46.9901 44.5479 46.9901C45.3498 46.9901 46 46.3287 46 45.5125C46 44.6966 45.3498 44.0349 44.5479 44.0349C43.7458 44.0349 43.0958 44.6966 43.0958 45.5125ZM43.0958 10.2843C43.0958 11.1002 43.7458 11.7619 44.5479 11.7619C45.3498 11.7619 46 11.1002 46 10.2843C46 9.4681 45.3498 8.80671 44.5479 8.80671C43.7458 8.80671 43.0958 9.4681 43.0958 10.2843ZM34.4403 54.3202C34.4403 55.1361 35.0903 55.7978 35.8924 55.7978C36.6945 55.7978 37.3445 55.1361 37.3445 54.3202C37.3445 53.504 36.6945 52.8426 35.8924 52.8426C35.0903 52.8426 34.4403 53.504 34.4403 54.3202ZM25.7848 54.3202C25.7848 55.1361 26.4351 55.7978 27.2372 55.7978C28.0391 55.7978 28.6893 55.1361 28.6893 54.3202C28.6893 53.504 28.0391 52.8426 27.2372 52.8426C26.4348 52.8426 25.7848 53.504 25.7848 54.3202ZM43.0958 54.3202C43.0958 55.1361 43.7458 55.7978 44.5479 55.7978C45.3498 55.7978 46 55.1361 46 54.3202C46 53.504 45.3498 52.8426 44.5479 52.8426C43.7458 52.8426 43.0958 53.504 43.0958 54.3202ZM25.7848 1.47758C25.7848 2.29376 26.4351 2.95515 27.2372 2.95515C28.0391 2.95515 28.6893 2.29352 28.6893 1.47758C28.6893 0.661394 28.0391 0 27.2372 0C26.4348 0 25.7848 0.66163 25.7848 1.47758ZM34.4403 1.47758C34.4403 2.29376 35.0903 2.95515 35.8924 2.95515C36.6945 2.95515 37.3445 2.29352 37.3445 1.47758C37.3445 0.661394 36.6945 0 35.8924 0C35.0903 0 34.4403 0.66163 34.4403 1.47758ZM43.0958 1.47758C43.0958 2.29376 43.7458 2.95515 44.5479 2.95515C45.3498 2.95515 46 2.29352 46 1.47758C46 0.661394 45.3498 0 44.5479 0C43.7458 0 43.0958 0.66163 43.0958 1.47758ZM25.7848 10.2848C25.7848 11.1007 26.4351 11.7623 27.2372 11.7623C28.0391 11.7623 28.6893 11.1007 28.6893 10.2848C28.6893 9.46857 28.0391 8.80718 27.2372 8.80718C26.4348 8.80718 25.7848 9.46857 25.7848 10.2848ZM34.4403 10.2848C34.4403 11.1007 35.0903 11.7623 35.8924 11.7623C36.6945 11.7623 37.3445 11.1007 37.3445 10.2848C37.3445 9.46857 36.6945 8.80718 35.8924 8.80718C35.0903 8.80718 34.4403 9.46857 34.4403 10.2848ZM8.65523 98.5222C8.65523 99.3381 9.30547 99.9998 10.1076 99.9998C10.9095 99.9998 11.5597 99.3381 11.5597 98.5222C11.5597 97.706 10.9095 97.0446 10.1076 97.0446C9.30547 97.0446 8.65523 97.706 8.65523 98.5222ZM8.65547 89.715C8.65547 90.5312 9.3057 91.1926 10.1078 91.1926C10.9097 91.1926 11.5599 90.5312 11.5599 89.715C11.5599 88.8991 10.9097 88.2374 10.1078 88.2374C9.3057 88.2374 8.65547 88.8991 8.65547 89.715ZM17.3112 89.715C17.3112 90.5312 17.9614 91.1926 18.7633 91.1926C19.5654 91.1926 20.2156 90.5312 20.2156 89.715C20.2156 88.8991 19.5654 88.2374 18.7633 88.2374C17.9614 88.2374 17.3112 88.8991 17.3112 89.715ZM0 98.5224C0 99.3384 0.650232 100 1.45212 100C2.25425 100 2.90425 99.3384 2.90425 98.5224C2.90425 97.7062 2.25425 97.0448 1.45212 97.0448C0.650232 97.0448 0 97.7062 0 98.5224ZM17.3109 98.5224C17.3109 99.3384 17.9609 100 18.7628 100C19.5649 100 20.2152 99.3384 20.2152 98.5224C20.2152 97.7062 19.5649 97.0448 18.7628 97.0448C17.9609 97.0448 17.3109 97.7062 17.3109 98.5224ZM0 80.9078C0 81.724 0.650232 82.3856 1.45212 82.3856C2.25425 82.3856 2.90425 81.724 2.90425 80.9081C2.90425 80.0919 2.25425 79.4303 1.45212 79.4303C0.650232 79.4303 0 80.0916 0 80.9078ZM0 89.7152C0 90.5314 0.650232 91.1928 1.45212 91.1928C2.25425 91.1928 2.90425 90.5314 2.90425 89.7152C2.90425 88.8993 2.25425 88.2377 1.45212 88.2377C0.650232 88.2377 0 88.8993 0 89.7152ZM17.3109 80.9083C17.3109 81.7242 17.9609 82.3859 18.7628 82.3859C19.5649 82.3859 20.2152 81.7242 20.2152 80.9083C20.2152 80.0921 19.5649 79.4305 18.7628 79.4305C17.9609 79.4305 17.3109 80.0921 17.3109 80.9083ZM8.65523 80.9083C8.65523 81.7242 9.30523 82.3859 10.1074 82.3859C10.9092 82.3859 11.5595 81.7242 11.5595 80.9083C11.5595 80.0921 10.9092 79.4305 10.1074 79.4305C9.30523 79.4305 8.65523 80.0921 8.65523 80.9083ZM17.3105 72.1011C17.3105 72.9171 17.9607 73.5787 18.7626 73.5787C19.5647 73.5787 20.2149 72.9171 20.2149 72.1011C20.2149 71.2849 19.5647 70.6235 18.7626 70.6235C17.9607 70.6235 17.3105 71.2849 17.3105 72.1011ZM0 63.2937C0 64.1099 0.650232 64.7713 1.45212 64.7713C2.25425 64.7713 2.90425 64.1099 2.90425 63.2937C2.90425 62.4778 2.25425 61.8161 1.45212 61.8161C0.650232 61.8161 0 62.4778 0 63.2937ZM8.65547 63.2937C8.65547 64.1099 9.30547 64.7713 10.1076 64.7713C10.9095 64.7713 11.5597 64.1099 11.5597 63.2937C11.5597 62.4778 10.9095 61.8161 10.1076 61.8161C9.30547 61.8161 8.65547 62.4778 8.65547 63.2937ZM17.3107 63.2937C17.3107 64.1099 17.9609 64.7713 18.7628 64.7713C19.5649 64.7713 20.2152 64.1099 20.2152 63.2937C20.2152 62.4778 19.5649 61.8161 18.7628 61.8161C17.9609 61.8161 17.3107 62.4778 17.3107 63.2937ZM0 72.1009C0 72.9168 0.650232 73.5785 1.45212 73.5785C2.25425 73.5785 2.90425 72.9168 2.90425 72.1009C2.90425 71.2847 2.25425 70.6233 1.45212 70.6233C0.650232 70.6233 0 71.2847 0 72.1009ZM8.65547 72.1009C8.65547 72.9168 9.30547 73.5785 10.1076 73.5785C10.9095 73.5785 11.5597 72.9168 11.5597 72.1009C11.5597 71.2847 10.9095 70.6233 10.1076 70.6233C9.30547 70.6233 8.65547 71.2847 8.65547 72.1009ZM34.4403 98.5222C34.4403 99.3381 35.0903 99.9998 35.8924 99.9998C36.6945 99.9998 37.3445 99.3381 37.3445 98.5222C37.3445 97.706 36.6945 97.0446 35.8924 97.0446C35.0903 97.0446 34.4403 97.706 34.4403 98.5222ZM34.4403 89.715C34.4403 90.5312 35.0903 91.1926 35.8924 91.1926C36.6945 91.1926 37.3445 90.5312 37.3445 89.715C37.3445 88.8991 36.6945 88.2374 35.8924 88.2374C35.0903 88.2374 34.4403 88.8991 34.4403 89.715ZM43.0958 89.715C43.0958 90.5312 43.7458 91.1926 44.5479 91.1926C45.3498 91.1926 46 90.5312 46 89.715C46 88.8991 45.3498 88.2374 44.5479 88.2374C43.7458 88.2374 43.0958 88.8991 43.0958 89.715ZM25.7848 98.5222C25.7848 99.3381 26.4351 99.9998 27.2372 99.9998C28.0391 99.9998 28.6893 99.3381 28.6893 98.5222C28.6893 97.706 28.0391 97.0446 27.2372 97.0446C26.4348 97.0446 25.7848 97.706 25.7848 98.5222ZM43.0958 98.5222C43.0958 99.3381 43.7458 99.9998 44.5479 99.9998C45.3498 99.9998 46 99.3381 46 98.5222C46 97.706 45.3498 97.0446 44.5479 97.0446C43.7458 97.0446 43.0958 97.706 43.0958 98.5222ZM25.7848 80.9078C25.7848 81.724 26.4351 82.3856 27.2372 82.3856C28.0391 82.3856 28.6893 81.724 28.6893 80.9081C28.6893 80.0919 28.0391 79.4303 27.2372 79.4303C26.4348 79.4303 25.7848 80.0916 25.7848 80.9078ZM25.7848 89.7152C25.7848 90.5314 26.4351 91.1928 27.2372 91.1928C28.0391 91.1928 28.6893 90.5314 28.6893 89.7152C28.6893 88.8993 28.0391 88.2377 27.2372 88.2377C26.4348 88.2377 25.7848 88.8993 25.7848 89.7152ZM43.0958 80.9083C43.0958 81.7242 43.7458 82.3859 44.5479 82.3859C45.3498 82.3859 46 81.7242 46 80.9083C46 80.0921 45.3498 79.4305 44.5479 79.4305C43.7458 79.4305 43.0958 80.0921 43.0958 80.9083ZM34.4403 80.9083C34.4403 81.7242 35.0903 82.3859 35.8924 82.3859C36.6945 82.3859 37.3445 81.7242 37.3445 80.9083C37.3445 80.0921 36.6945 79.4305 35.8924 79.4305C35.0903 79.4305 34.4403 80.0921 34.4403 80.9083ZM43.0958 72.1011C43.0958 72.9171 43.7458 73.5787 44.5479 73.5787C45.3498 73.5787 46 72.9171 46 72.1011C46 71.2849 45.3498 70.6235 44.5479 70.6235C43.7458 70.6235 43.0958 71.2849 43.0958 72.1011ZM25.7848 63.2939C25.7848 64.1101 26.4351 64.7715 27.2372 64.7715C28.0391 64.7715 28.6893 64.1101 28.6893 63.2939C28.6893 62.478 28.0391 61.8164 27.2372 61.8164C26.4348 61.8164 25.7848 62.478 25.7848 63.2939ZM34.4403 63.2939C34.4403 64.1101 35.0903 64.7715 35.8924 64.7715C36.6945 64.7715 37.3445 64.1101 37.3445 63.2939C37.3445 62.478 36.6945 61.8164 35.8924 61.8164C35.0903 61.8164 34.4403 62.478 34.4403 63.2939ZM43.0958 63.2939C43.0958 64.1101 43.7458 64.7715 44.5479 64.7715C45.3498 64.7715 46 64.1101 46 63.2939C46 62.478 45.3498 61.8164 44.5479 61.8164C43.7458 61.8164 43.0958 62.478 43.0958 63.2939ZM25.7848 72.1011C25.7848 72.9171 26.4351 73.5787 27.2372 73.5787C28.0391 73.5787 28.6893 72.9171 28.6893 72.1011C28.6893 71.2849 28.0391 70.6235 27.2372 70.6235C26.4348 70.6235 25.7848 71.2849 25.7848 72.1011ZM34.4403 72.1011C34.4403 72.9171 35.0903 73.5787 35.8924 73.5787C36.6945 73.5787 37.3445 72.9171 37.3445 72.1011C37.3445 71.2849 36.6945 70.6235 35.8924 70.6235C35.0903 70.6235 34.4403 71.2849 34.4403 72.1011Z" fill="#707070"/>
</svg>
