<svg width="94" height="45" viewBox="0 0 94 45" fill="none" xmlns="http://www.w3.org/2000/svg">
<path d="M8.33211 1.60407C8.33211 2.37922 8.95782 3.00777 9.72998 3.00777C10.5019 3.00777 11.1279 2.37922 11.1279 1.60407C11.1279 0.828701 10.5019 0.200378 9.72998 0.200378C8.95782 0.200378 8.33211 0.828701 8.33211 1.60407ZM0 1.60407C0 2.37922 0.62594 3.00777 1.39787 3.00777C2.17003 3.00777 2.79575 2.37922 2.79575 1.60407C2.79575 0.828701 2.17003 0.200378 1.39787 0.200378C0.62594 0.200378 0 0.828701 0 1.60407ZM16.6642 1.60407C16.6642 2.37922 17.2899 3.00777 18.0619 3.00777C18.834 3.00777 19.46 2.37922 19.46 1.60407C19.46 0.828701 18.834 0.200378 18.0619 0.200378C17.2899 0.200378 16.6642 0.828701 16.6642 1.60407ZM33.1536 1.60407C33.1536 2.37922 33.7794 3.00777 34.5515 3.00777C35.3237 3.00777 35.9494 2.37922 35.9494 1.60407C35.9494 0.828701 35.3237 0.200378 34.5515 0.200378C33.7794 0.200378 33.1536 0.828701 33.1536 1.60407ZM24.8215 1.60407C24.8215 2.37922 25.4475 3.00777 26.2196 3.00777C26.9916 3.00777 27.6175 2.37922 27.6175 1.60407C27.6175 0.828701 26.9916 0.200378 26.2196 0.200378C25.4472 0.200378 24.8215 0.828701 24.8215 1.60407ZM41.4857 1.60407C41.4857 2.37922 42.1115 3.00777 42.8836 3.00777C43.6555 3.00777 44.2815 2.37922 44.2815 1.60407C44.2815 0.828701 43.6555 0.200378 42.8836 0.200378C42.1115 0.200378 41.4857 0.828701 41.4857 1.60407ZM58.0491 1.60407C58.0491 2.37922 58.675 3.00777 59.4472 3.00777C60.2191 3.00777 60.845 2.37922 60.845 1.60407C60.845 0.828701 60.2191 0.200378 59.4472 0.200378C58.6748 0.200378 58.0491 0.828701 58.0491 1.60407ZM49.7172 1.60407C49.7172 2.37922 50.3429 3.00777 51.115 3.00777C51.887 3.00777 52.5129 2.37922 52.5129 1.60407C52.5129 0.828701 51.887 0.200378 51.115 0.200378C50.3429 0.200378 49.7172 0.828701 49.7172 1.60407ZM66.3812 1.60407C66.3812 2.37922 67.0071 3.00777 67.779 3.00777C68.5512 3.00777 69.1769 2.37922 69.1769 1.60407C69.1769 0.828701 68.5512 0.200378 67.779 0.200378C67.0071 0.200378 66.3812 0.828701 66.3812 1.60407ZM82.871 1.60407C82.871 2.37922 83.4967 3.00777 84.2689 3.00777C85.0408 3.00777 85.6668 2.37922 85.6668 1.60407C85.6668 0.828701 85.0408 0.200378 84.2689 0.200378C83.4967 0.200378 82.871 0.828701 82.871 1.60407ZM74.5389 1.60407C74.5389 2.37922 75.1649 3.00777 75.9368 3.00777C76.7089 3.00777 77.3347 2.37922 77.3347 1.60407C77.3347 0.828701 76.7089 0.200378 75.9368 0.200378C75.1649 0.200378 74.5389 0.828701 74.5389 1.60407ZM91.2031 1.60407C91.2031 2.37922 91.8289 3.00777 92.6008 3.00777C93.3732 3.00777 93.9989 2.37922 93.9989 1.60407C93.9989 0.828701 93.3729 0.200378 92.6008 0.200378C91.8289 0.200378 91.2031 0.828701 91.2031 1.60407ZM8.33188 43.5959C8.33188 44.371 8.95782 44.9996 9.72998 44.9996C10.5019 44.9996 11.1279 44.371 11.1279 43.5959C11.1279 42.8205 10.5019 42.1922 9.72998 42.1922C8.95782 42.1922 8.33188 42.8205 8.33188 43.5959ZM8.33211 35.2291C8.33211 36.0044 8.95805 36.6328 9.7302 36.6328C10.5021 36.6328 11.1281 36.0044 11.1281 35.2291C11.1281 34.4539 10.5021 33.8254 9.7302 33.8254C8.95805 33.8254 8.33211 34.4539 8.33211 35.2291ZM16.6644 35.2291C16.6644 36.0044 17.2904 36.6328 18.0623 36.6328C18.8345 36.6328 19.4604 36.0044 19.4604 35.2291C19.4604 34.4539 18.8345 33.8254 18.0623 33.8254C17.2904 33.8254 16.6644 34.4539 16.6644 35.2291ZM0 43.5961C0 44.3713 0.62594 44.9998 1.39787 44.9998C2.17003 44.9998 2.79575 44.3713 2.79575 43.5961C2.79575 42.8207 2.17003 42.1924 1.39787 42.1924C0.62594 42.1924 0 42.8207 0 43.5961ZM16.6642 43.5961C16.6642 44.3713 17.2899 44.9998 18.0619 44.9998C18.834 44.9998 19.46 44.3713 19.46 43.5961C19.46 42.8207 18.834 42.1924 18.0619 42.1924C17.2899 42.1924 16.6642 42.8207 16.6642 43.5961ZM0 26.8623C0 27.6377 0.62594 28.2662 1.39787 28.2662C2.17003 28.2662 2.79575 27.6377 2.79575 26.8625C2.79575 26.0871 2.17003 25.4586 1.39787 25.4586C0.62594 25.4586 0 26.0869 0 26.8623ZM0 35.2293C0 36.0047 0.62594 36.633 1.39787 36.633C2.17003 36.633 2.79575 36.0047 2.79575 35.2293C2.79575 34.4542 2.17003 33.8256 1.39787 33.8256C0.62594 33.8256 0 34.4542 0 35.2293ZM16.6642 26.8627C16.6642 27.6379 17.2899 28.2664 18.0619 28.2664C18.834 28.2664 19.46 27.6379 19.46 26.8627C19.46 26.0874 18.834 25.4588 18.0619 25.4588C17.2899 25.4588 16.6642 26.0874 16.6642 26.8627ZM8.33188 26.8627C8.33188 27.6379 8.9576 28.2664 9.72976 28.2664C10.5017 28.2664 11.1276 27.6379 11.1276 26.8627C11.1276 26.0874 10.5017 25.4588 9.72976 25.4588C8.9576 25.4588 8.33188 26.0874 8.33188 26.8627ZM16.6638 18.4959C16.6638 19.2711 17.2897 19.8996 18.0616 19.8996C18.8338 19.8996 19.4597 19.2711 19.4597 18.4959C19.4597 17.7206 18.8338 17.0922 18.0616 17.0922C17.2897 17.0922 16.6638 17.7206 16.6638 18.4959ZM0 10.1289C0 10.9043 0.62594 11.5326 1.39787 11.5326C2.17003 11.5326 2.79575 10.9043 2.79575 10.1289C2.79575 9.35375 2.17003 8.72521 1.39787 8.72521C0.62594 8.72521 0 9.35375 0 10.1289ZM8.33211 10.1289C8.33211 10.9043 8.95782 11.5326 9.72998 11.5326C10.5019 11.5326 11.1279 10.9043 11.1279 10.1289C11.1279 9.35375 10.5019 8.72521 9.72998 8.72521C8.95782 8.72521 8.33211 9.35375 8.33211 10.1289ZM16.664 10.1289C16.664 10.9043 17.2899 11.5326 18.0619 11.5326C18.834 11.5326 19.46 10.9043 19.46 10.1289C19.46 9.35375 18.834 8.72521 18.0619 8.72521C17.2899 8.72521 16.664 9.35375 16.664 10.1289ZM0 18.4957C0 19.2709 0.62594 19.8994 1.39787 19.8994C2.17003 19.8994 2.79575 19.2709 2.79575 18.4957C2.79575 17.7203 2.17003 17.092 1.39787 17.092C0.62594 17.092 0 17.7203 0 18.4957ZM8.33211 18.4957C8.33211 19.2709 8.95782 19.8994 9.72998 19.8994C10.5019 19.8994 11.1279 19.2709 11.1279 18.4957C11.1279 17.7203 10.5019 17.092 9.72998 17.092C8.95782 17.092 8.33211 17.7203 8.33211 18.4957ZM33.1536 43.5959C33.1536 44.371 33.7794 44.9996 34.5515 44.9996C35.3237 44.9996 35.9494 44.371 35.9494 43.5959C35.9494 42.8205 35.3237 42.1922 34.5515 42.1922C33.7794 42.1922 33.1536 42.8205 33.1536 43.5959ZM33.1536 35.2291C33.1536 36.0044 33.7794 36.6328 34.5515 36.6328C35.3237 36.6328 35.9494 36.0044 35.9494 35.2291C35.9494 34.4539 35.3237 33.8254 34.5515 33.8254C33.7794 33.8254 33.1536 34.4539 33.1536 35.2291ZM41.4857 35.2291C41.4857 36.0044 42.1115 36.6328 42.8836 36.6328C43.6555 36.6328 44.2815 36.0044 44.2815 35.2291C44.2815 34.4539 43.6555 33.8254 42.8836 33.8254C42.1115 33.8254 41.4857 34.4539 41.4857 35.2291ZM24.8215 43.5959C24.8215 44.371 25.4475 44.9996 26.2196 44.9996C26.9916 44.9996 27.6175 44.371 27.6175 43.5959C27.6175 42.8205 26.9916 42.1922 26.2196 42.1922C25.4472 42.1922 24.8215 42.8205 24.8215 43.5959ZM41.4857 43.5959C41.4857 44.371 42.1115 44.9996 42.8836 44.9996C43.6555 44.9996 44.2815 44.371 44.2815 43.5959C44.2815 42.8205 43.6555 42.1922 42.8836 42.1922C42.1115 42.1922 41.4857 42.8205 41.4857 43.5959ZM24.8215 26.8623C24.8215 27.6377 25.4475 28.2662 26.2196 28.2662C26.9916 28.2662 27.6175 27.6377 27.6175 26.8625C27.6175 26.0871 26.9916 25.4586 26.2196 25.4586C25.4472 25.4586 24.8215 26.0869 24.8215 26.8623ZM24.8215 35.2293C24.8215 36.0047 25.4475 36.633 26.2196 36.633C26.9916 36.633 27.6175 36.0047 27.6175 35.2293C27.6175 34.4542 26.9916 33.8256 26.2196 33.8256C25.4472 33.8256 24.8215 34.4542 24.8215 35.2293ZM41.4857 26.8627C41.4857 27.6379 42.1115 28.2664 42.8836 28.2664C43.6555 28.2664 44.2815 27.6379 44.2815 26.8627C44.2815 26.0874 43.6555 25.4588 42.8836 25.4588C42.1115 25.4588 41.4857 26.0874 41.4857 26.8627ZM33.1536 26.8627C33.1536 27.6379 33.7794 28.2664 34.5515 28.2664C35.3237 28.2664 35.9494 27.6379 35.9494 26.8627C35.9494 26.0874 35.3237 25.4588 34.5515 25.4588C33.7794 25.4588 33.1536 26.0874 33.1536 26.8627ZM41.4857 18.4959C41.4857 19.2711 42.1115 19.8996 42.8836 19.8996C43.6555 19.8996 44.2815 19.2711 44.2815 18.4959C44.2815 17.7206 43.6555 17.0922 42.8836 17.0922C42.1115 17.0922 41.4857 17.7206 41.4857 18.4959ZM24.8215 10.1291C24.8215 10.9045 25.4475 11.5328 26.2196 11.5328C26.9916 11.5328 27.6175 10.9045 27.6175 10.1291C27.6175 9.35398 26.9916 8.72544 26.2196 8.72544C25.4472 8.72544 24.8215 9.35398 24.8215 10.1291ZM33.1536 10.1291C33.1536 10.9045 33.7794 11.5328 34.5515 11.5328C35.3237 11.5328 35.9494 10.9045 35.9494 10.1291C35.9494 9.35398 35.3237 8.72544 34.5515 8.72544C33.7794 8.72544 33.1536 9.35398 33.1536 10.1291ZM41.4857 10.1291C41.4857 10.9045 42.1115 11.5328 42.8836 11.5328C43.6555 11.5328 44.2815 10.9045 44.2815 10.1291C44.2815 9.35398 43.6555 8.72544 42.8836 8.72544C42.1115 8.72544 41.4857 9.35398 41.4857 10.1291ZM24.8215 18.4959C24.8215 19.2711 25.4475 19.8996 26.2196 19.8996C26.9916 19.8996 27.6175 19.2711 27.6175 18.4959C27.6175 17.7206 26.9916 17.0922 26.2196 17.0922C25.4472 17.0922 24.8215 17.7206 24.8215 18.4959ZM33.1536 18.4959C33.1536 19.2711 33.7794 19.8996 34.5515 19.8996C35.3237 19.8996 35.9494 19.2711 35.9494 18.4959C35.9494 17.7206 35.3237 17.0922 34.5515 17.0922C33.7794 17.0922 33.1536 17.7206 33.1536 18.4959ZM58.0493 43.5961C58.0493 44.3713 58.6752 44.9998 59.4474 44.9998C60.2193 44.9998 60.8452 44.3713 60.8452 43.5961C60.8452 42.8207 60.2193 42.1924 59.4474 42.1924C58.675 42.1924 58.0493 42.8207 58.0493 43.5961ZM58.0493 35.2293C58.0493 36.0047 58.6752 36.633 59.4474 36.633C60.2193 36.633 60.8452 36.0047 60.8452 35.2293C60.8452 34.4542 60.2193 33.8256 59.4474 33.8256C58.675 33.8256 58.0493 34.4542 58.0493 35.2293ZM66.3814 35.2293C66.3814 36.0047 67.0073 36.633 67.7793 36.633C68.5514 36.633 69.1771 36.0047 69.1771 35.2293C69.1771 34.4542 68.5514 33.8256 67.7793 33.8256C67.0073 33.8256 66.3814 34.4542 66.3814 35.2293ZM49.7172 43.5961C49.7172 44.3713 50.3431 44.9998 51.1153 44.9998C51.8872 44.9998 52.5131 44.3713 52.5131 43.5961C52.5131 42.8207 51.8872 42.1924 51.1153 42.1924C50.3431 42.1924 49.7172 42.8207 49.7172 43.5961ZM66.3816 43.5961C66.3816 44.3713 67.0075 44.9998 67.7795 44.9998C68.5516 44.9998 69.1774 44.3713 69.1774 43.5961C69.1774 42.8207 68.5516 42.1924 67.7795 42.1924C67.0075 42.1924 66.3816 42.8207 66.3816 43.5961ZM49.7174 26.8625C49.7174 27.6379 50.3433 28.2664 51.1155 28.2664C51.8874 28.2664 52.5134 27.6379 52.5134 26.8627C52.5134 26.0874 51.8874 25.4588 51.1155 25.4588C50.3433 25.4588 49.7174 26.0871 49.7174 26.8625ZM49.7176 35.2295C49.7176 36.0049 50.3436 36.6332 51.1157 36.6332C51.8876 36.6332 52.5136 36.0049 52.5136 35.2295C52.5136 34.4544 51.8876 33.8258 51.1157 33.8258C50.3436 33.8258 49.7176 34.4544 49.7176 35.2295ZM66.382 26.8629C66.382 27.6381 67.008 28.2666 67.7799 28.2666C68.5521 28.2666 69.1778 27.6381 69.1778 26.8629C69.1778 26.0876 68.5521 25.459 67.7799 25.459C67.008 25.459 66.382 26.0876 66.382 26.8629ZM58.0499 26.8629C58.0499 27.6381 58.6759 28.2666 59.448 28.2666C60.22 28.2666 60.8459 27.6381 60.8459 26.8629C60.8459 26.0876 60.22 25.459 59.448 25.459C58.6757 25.459 58.0499 26.0876 58.0499 26.8629ZM66.382 18.4962C66.382 19.2713 67.008 19.8999 67.7799 19.8999C68.5521 19.8999 69.1778 19.2713 69.1778 18.4962C69.1778 17.7208 68.5521 17.0925 67.7799 17.0925C67.008 17.0925 66.382 17.7208 66.382 18.4962ZM49.7178 10.1294C49.7178 10.9047 50.3438 11.533 51.1159 11.533C51.8879 11.533 52.5138 10.9047 52.5138 10.1294C52.5138 9.3542 51.8879 8.72566 51.1159 8.72566C50.3438 8.72566 49.7178 9.3542 49.7178 10.1294ZM58.0502 10.1294C58.0502 10.9047 58.6761 11.533 59.4483 11.533C60.2202 11.533 60.8461 10.9047 60.8461 10.1294C60.8461 9.3542 60.2202 8.72566 59.4483 8.72566C58.6759 8.72566 58.0502 9.3542 58.0502 10.1294ZM66.3823 10.1294C66.3823 10.9047 67.0082 11.533 67.7801 11.533C68.5523 11.533 69.178 10.9047 69.178 10.1294C69.178 9.3542 68.5523 8.72566 67.7801 8.72566C67.0082 8.72566 66.3823 9.3542 66.3823 10.1294ZM49.7181 18.4962C49.7181 19.2713 50.344 19.8999 51.1162 19.8999C51.8881 19.8999 52.514 19.2713 52.514 18.4962C52.514 17.7208 51.8881 17.0925 51.1162 17.0925C50.344 17.0925 49.7181 17.7208 49.7181 18.4962ZM58.0504 18.4962C58.0504 19.2713 58.6763 19.8999 59.4485 19.8999C60.2204 19.8999 60.8464 19.2713 60.8464 18.4962C60.8464 17.7208 60.2204 17.0925 59.4485 17.0925C58.6761 17.0925 58.0504 17.7208 58.0504 18.4962ZM82.8721 43.5963C82.8721 44.3715 83.4979 45 84.27 45C85.042 45 85.6679 44.3715 85.6679 43.5963C85.6679 42.821 85.042 42.1926 84.27 42.1926C83.4979 42.1926 82.8721 42.821 82.8721 43.5963ZM82.8721 35.2295C82.8721 36.0049 83.4979 36.6332 84.27 36.6332C85.042 36.6332 85.6679 36.0049 85.6679 35.2295C85.6679 34.4544 85.042 33.8258 84.27 33.8258C83.4979 33.8258 82.8721 34.4544 82.8721 35.2295ZM91.204 35.2295C91.204 36.0049 91.83 36.6332 92.6019 36.6332C93.3743 36.6332 94 36.0049 94 35.2295C94 34.4544 93.3741 33.8258 92.6019 33.8258C91.83 33.8258 91.204 34.4544 91.204 35.2295ZM74.5391 43.5961C74.5391 44.3713 75.1651 44.9998 75.937 44.9998C76.7092 44.9998 77.3349 44.3713 77.3349 43.5961C77.3349 42.8207 76.7092 42.1924 75.937 42.1924C75.1651 42.1924 74.5391 42.8207 74.5391 43.5961ZM91.2034 43.5961C91.2034 44.3713 91.8291 44.9998 92.601 44.9998C93.3734 44.9998 93.9991 44.3713 93.9991 43.5961C93.9991 42.8207 93.3732 42.1924 92.601 42.1924C91.8291 42.1924 91.2034 42.8207 91.2034 43.5961ZM74.5389 26.8625C74.5389 27.6379 75.1649 28.2664 75.9368 28.2664C76.7089 28.2664 77.3347 27.6379 77.3347 26.8627C77.3347 26.0874 76.7089 25.4588 75.9368 25.4588C75.1649 25.4588 74.5389 26.0871 74.5389 26.8625ZM74.5389 35.2295C74.5389 36.0049 75.1649 36.6332 75.9368 36.6332C76.7089 36.6332 77.3347 36.0049 77.3347 35.2295C77.3347 34.4544 76.7089 33.8258 75.9368 33.8258C75.1649 33.8258 74.5389 34.4544 74.5389 35.2295ZM91.2031 26.8629C91.2031 27.6381 91.8289 28.2666 92.6008 28.2666C93.3732 28.2666 93.9989 27.6381 93.9989 26.8629C93.9989 26.0876 93.3729 25.459 92.6008 25.459C91.8289 25.459 91.2031 26.0876 91.2031 26.8629ZM82.8708 26.8629C82.8708 27.6381 83.4965 28.2666 84.2687 28.2666C85.0406 28.2666 85.6665 27.6381 85.6665 26.8629C85.6665 26.0876 85.0406 25.459 84.2687 25.459C83.4965 25.459 82.8708 26.0876 82.8708 26.8629ZM91.2027 18.4962C91.2027 19.2713 91.8286 19.8999 92.6006 19.8999C93.3729 19.8999 93.9987 19.2713 93.9987 18.4962C93.9987 17.7208 93.3727 17.0925 92.6006 17.0925C91.8286 17.0925 91.2027 17.7208 91.2027 18.4962ZM74.5391 10.1289C74.5391 10.9043 75.1651 11.5326 75.937 11.5326C76.7092 11.5326 77.3349 10.9043 77.3349 10.1289C77.3349 9.35375 76.7092 8.72521 75.937 8.72521C75.1651 8.72521 74.5391 9.35375 74.5391 10.1289ZM82.8712 10.1289C82.8712 10.9043 83.497 11.5326 84.2691 11.5326C85.0411 11.5326 85.667 10.9043 85.667 10.1289C85.667 9.35375 85.0411 8.72521 84.2691 8.72521C83.497 8.72521 82.8712 9.35375 82.8712 10.1289ZM91.2031 10.1289C91.2031 10.9043 91.8291 11.5326 92.601 11.5326C93.3734 11.5326 93.9991 10.9043 93.9991 10.1289C93.9991 9.35375 93.3732 8.72521 92.601 8.72521C91.8291 8.72521 91.2031 9.35375 91.2031 10.1289ZM74.5391 18.4957C74.5391 19.2709 75.1651 19.8994 75.937 19.8994C76.7092 19.8994 77.3349 19.2709 77.3349 18.4957C77.3349 17.7203 76.7092 17.092 75.937 17.092C75.1651 17.092 74.5391 17.7203 74.5391 18.4957ZM82.8712 18.4957C82.8712 19.2709 83.497 19.8994 84.2691 19.8994C85.0411 19.8994 85.667 19.2709 85.667 18.4957C85.667 17.7203 85.0411 17.092 84.2691 17.092C83.497 17.092 82.8712 17.7203 82.8712 18.4957Z" fill="#707070"/>
</svg>
